<?xml version="1.0" encoding="iso-8859-1"?>
<!-- Generator: Adobe Illustrator 16.0.0, SVG Export Plug-In . SVG Version: 6.00 Build 0)  -->
<!DOCTYPE svg PUBLIC "-//W3C//DTD SVG 1.1//EN" "http://www.w3.org/Graphics/SVG/1.1/DTD/svg11.dtd">
<svg version="1.1" id="Capa_1" xmlns="http://www.w3.org/2000/svg" xmlns:xlink="http://www.w3.org/1999/xlink" x="0px" y="0px"
	 width="501.26px" height="501.26px" viewBox="0 0 501.26 501.26" style="enable-background:new 0 0 501.26 501.26;"
	 xml:space="preserve">
<g>
	<g>
		<path d="M75.92,135.635c22.114,0,40.049-17.934,40.049-40.052c0-22.122-17.935-40.052-40.049-40.052
			c-22.123,0-40.054,17.93-40.054,40.052C35.866,117.702,53.797,135.635,75.92,135.635z"/>
		<path d="M425.688,146.954c0.291,0.006,0.582,0.009,0.873,0.009c13.954,0,27.149-7.55,34.244-19.565
			c7.193-12.184,7.274-27.74,0.205-39.998c-6.963-12.076-20.071-19.765-34.013-19.915c-13.968-0.151-27.248,7.258-34.474,19.212
			c-7.316,12.109-7.56,27.663-0.616,39.993C398.741,138.828,411.759,146.652,425.688,146.954z"/>
		<path d="M501.223,264.994c0.002,0.072,0.002,0.036-0.003-0.226c-0.031-1.192-0.027-0.97-0.019-0.541
			c-0.264-9.317-0.913-18.602-2.335-27.823c-1.532-9.938-4.003-19.711-7.42-29.167c-6.459-17.888-17.563-35.056-33.302-46.103
			c-3.264-2.314-6.804-4.163-10.309-6.094c-13.424-7.394-28.719-7.394-42.276-0.179c-16.662,8.868-30.138,23.019-38.822,39.51
			c-4.645,8.817-7.955,18.209-10.54,27.812c-2.578,9.582-3.916,19.417-4.897,29.271c-0.789,7.883-0.836,15.822-0.777,23.739
			c-0.842-0.066-1.7-0.248-2.451-0.423c-1.497-0.351-2.959-0.862-4.384-1.442c-3.06-1.246-5.984-2.818-8.819-4.512
			c-5.276-3.152-10.358-6.677-15.092-10.6c-5.698-4.723-11.933-6.982-18.159-7.039v-0.003c-0.021,0-0.042,0.001-0.062,0.001
			c-0.021,0-0.039-0.001-0.062-0.001v0.003c-6.229,0.056-12.462,2.316-18.161,7.039c-4.729,3.923-9.812,7.447-15.091,10.6
			c-2.835,1.693-5.76,3.266-8.82,4.512c-1.423,0.58-2.886,1.092-4.383,1.442c-1.222,0.286-2.731,0.591-3.99,0.382
			c-0.144-0.051-3.514-2.281-3.514-2.281c-1.521-0.986-3.274-1.322-4.94-1.088c-1.385,0.094-2.756,0.598-3.908,1.547
			c-4.439,3.656-9.131,6.76-14.963,7.543c-5.46,0.735-11.451-0.718-15.53-4.3c-9.771-8.575-22.383-7.897-32.339,0.05
			c-4.223,3.371-10.031,4.98-15.463,4.25c-4.155-0.559-7.734-2.298-11.057-4.574c0.031-0.178,0.074-0.351,0.097-0.531l0.012-0.09
			c0,0,0.291-2.254,0.699-6.229c0.401-3.975,0.912-9.675,1.163-16.605c0.246-6.926,0.246-15.086-0.482-23.939
			c-0.733-8.846-2.189-18.402-4.881-27.936c-2.667-9.522-6.625-19.02-11.85-27.411c-2.604-4.193-5.503-8.102-8.578-11.605
			c-3.073-3.507-6.319-6.605-9.553-9.248c-6.478-5.304-12.843-8.72-17.719-10.742c-2.447-1.018-4.523-1.701-6.188-2.159
			c-9.826-2.687-21-2.301-30.361-0.546c-0.74,0.145-1.457,0.315-2.299,0.546c-1.664,0.458-3.739,1.142-6.188,2.159
			c-4.876,2.021-11.241,5.438-17.718,10.742c-3.233,2.643-6.479,5.74-9.553,9.248c-3.075,3.504-5.974,7.413-8.577,11.605
			c-5.224,8.391-9.182,17.889-11.849,27.411c-2.692,9.533-4.146,19.089-4.88,27.934c-0.729,8.854-0.729,17.013-0.481,23.939
			c0.251,6.931,0.761,12.631,1.161,16.605c0.409,3.975,0.7,6.229,0.7,6.229l0.017,0.138c0.802,6.054,6.117,10.593,12.332,10.315
			c6.566-0.295,11.65-5.857,11.357-12.424c0,0-0.094-2.097-0.162-5.75c-0.063-3.65-0.089-8.859,0.204-15.033
			c0.296-6.167,0.906-13.305,2.151-20.712c1.242-7.399,3.119-15.071,5.799-22.168c1.506-4.028,3.278-7.846,5.238-11.357
			l-8.766,72.378c-0.406,3.529-0.447,7.396,0,11.08c0.915,7.554,3.619,14.451,7.624,20.337l6.167,130.028
			c0.355,7.059,6.031,12.879,13.233,13.201c7.654,0.344,14.136-5.582,14.481-13.236l4.402-98.219l4.578,98.244
			c0.352,7.057,6.022,12.883,13.225,13.213c7.654,0.35,14.142-5.572,14.49-13.225L114.338,302
			c5.825-8.803,8.682-19.636,7.311-30.937l-8.661-71.509c1.77,3.269,3.375,6.792,4.756,10.488
			c2.679,7.096,4.557,14.769,5.799,22.168c1.245,7.406,1.855,14.544,2.15,20.713c0.295,6.172,0.269,11.381,0.206,15.033
			c-0.068,3.651-0.163,5.748-0.163,5.748c-0.256,6.103,4.194,11.541,10.363,12.338c0.869,0.111,1.725,0.121,2.563,0.049
			c3.738,3.691,7.835,6.844,12.692,9.119c5.447,2.553,11.579,3.621,17.567,3.291l0.017,22.545l-13.106,59.172
			c-0.271,1.385,0.088,2.806,0.982,3.895c0.898,1.092,2.223,1.717,3.634,1.717h10.047l2.264,49.91
			c0.206,4.242,3.822,7.693,8.073,7.678c4.2-0.018,7.759-3.41,7.986-7.6l2.742-49.988h1.08l2.264,49.91
			c0.207,4.242,3.822,7.693,8.072,7.678c4.201-0.018,7.76-3.41,7.988-7.6l2.742-49.988h9.479c1.408,0,2.729-0.623,3.627-1.711
			c0.896-1.088,1.259-2.502,0.985-3.916l-12.589-58.029l-0.033-23.674c5.891,0.332,11.93-0.696,17.309-3.16
			c3.811-1.746,7.16-4.034,10.236-6.701c0.089,0.062,0.173,0.128,0.264,0.189c3.071,2.024,6.721,2.963,10.367,3.137
			c7.416,0.351,14.809-1.983,21.613-4.705l-2.501,45.814c-0.307,5.639,1.028,10.592,3.577,15.192l4.122,85.972
			c0.229,4.711,4.229,8.533,8.947,8.533c4.703,0,8.703-3.811,8.963-8.502l3.479-67.227l3.48,67.227
			c0.258,4.691,4.26,8.502,8.961,8.502c4.72,0,8.72-3.822,8.949-8.533l4.12-85.972c2.55-4.601,3.884-9.554,3.577-15.192
			l-2.501-45.814c6.808,2.722,14.197,5.055,21.614,4.705c3.298-0.157,6.591-0.948,9.466-2.596c0.832,0.237,1.696,0.393,2.589,0.434
			c6.261,0.287,11.781-4.577,12.296-10.817c0.244-2.95,0.405-5.92,0.747-8.858c0.532-4.588,1.14-9.148,1.852-13.711
			c1.495-9.569,4.075-19.021,7.458-28.086c0.846-2.267,1.773-4.523,2.801-6.715l0.414,28.062l-22.622,101.75
			c-0.456,2.34,0.148,4.738,1.662,6.576c1.516,1.842,3.751,2.896,6.134,2.896h17.621l3.472,71.727
			c0.373,7.197,6.479,13.066,13.691,13.102c7.17,0.037,13.312-5.684,13.794-12.834c0.004-0.072,0.009-0.146,0.013-0.219
			l3.718-71.774h3.228l3.472,71.728c0.373,7.195,6.479,13.064,13.691,13.102c7.17,0.037,13.312-5.686,13.793-12.836
			c0.005-0.072,0.01-0.145,0.014-0.219l3.717-71.773h17.617c2.378,0,4.612-1.052,6.126-2.887c1.516-1.836,2.126-4.227,1.664-6.608
			l-22.347-102.208l0.319-27.619c3.851,9.148,6.415,20.48,8.278,30.214c1.609,8.399,2.457,16.879,3.161,25.394
			c0.018,0.208,0.034,0.415,0.05,0.622c0.536,6.222,6.055,11.035,12.282,10.766c6.181-0.27,11.213-5.486,11.278-11.668
			C501.245,272.93,501.297,268.965,501.223,264.994z"/>
		<path d="M301.409,249.246c0.049,0,0.098-0.001,0.146-0.003c0.049,0.001,0.097,0.003,0.146,0.003
			c7.075,0,13.943-2.958,18.805-8.096c4.889-5.167,7.45-12.231,7.033-19.329c-0.415-7.023-3.76-13.678-9.126-18.222
			c-4.688-3.965-10.696-6.112-16.796-6.106v-0.002c-0.021,0-0.042,0.001-0.062,0.001c-0.021,0-0.039-0.001-0.062-0.001v0.002
			c-6.099-0.006-12.109,2.141-16.797,6.106c-5.366,4.544-8.711,11.198-9.124,18.222c-0.419,7.098,2.145,14.162,7.032,19.329
			C287.468,246.287,294.336,249.246,301.409,249.246z"/>
		<path d="M183.809,266.272c2.627,0.997,5.432,1.504,8.242,1.504c7.708,0,15.048-3.938,19.324-10.351
			c4.337-6.503,5.084-14.996,1.95-22.157c-3.054-6.981-9.531-12.142-17.025-13.528c-7.662-1.417-15.68,1.174-21.056,6.812
			c-5.38,5.646-7.582,13.81-5.777,21.399C171.226,257.357,176.694,263.569,183.809,266.272z"/>
	</g>
</g>
<g>
</g>
<g>
</g>
<g>
</g>
<g>
</g>
<g>
</g>
<g>
</g>
<g>
</g>
<g>
</g>
<g>
</g>
<g>
</g>
<g>
</g>
<g>
</g>
<g>
</g>
<g>
</g>
<g>
</g>
</svg>
