<?xml version="1.0" encoding="iso-8859-1"?>
<!-- Generator: Adobe Illustrator 18.0.0, SVG Export Plug-In . SVG Version: 6.00 Build 0)  -->
<!DOCTYPE svg PUBLIC "-//W3C//DTD SVG 1.1//EN" "http://www.w3.org/Graphics/SVG/1.1/DTD/svg11.dtd">
<svg version="1.1" id="Capa_1" xmlns="http://www.w3.org/2000/svg" xmlns:xlink="http://www.w3.org/1999/xlink" x="0px" y="0px"
	 viewBox="0 0 253.846 253.846" style="enable-background:new 0 0 253.846 253.846;" xml:space="preserve">
<g>
	<path d="M175.321,48.079c-21.092-14.395-56.09-13.116-80.077-12.874c-20.844,0.211-49.452,1.541-64.04,18.435
		C13.607,68.627,12.55,96.666,16.301,118.163c4.662,26.716,25.718,34.614,50.487,27.65c0.015-0.004,0.017-0.02,0.031-0.024
		c2.579-0.472,5.086-1.173,7.551-1.988c-0.217,0.439-0.29,0.924,0.085,1.414c7.673,10.043,17.351,18.906,30.502,20.316
		c16.65,1.785,25.373-9.579,35.693-20.749c0.378-0.409,0.548-0.85,0.637-1.292c3.287,0.722,6.679,1.046,10.004,0.768
		c0.321,0.183,0.689,0.315,1.143,0.325C198.725,145.604,209.685,71.532,175.321,48.079z M105.316,160.267
		c-11.635-1.153-20.484-8.953-28.223-17.087c-0.12-0.126-0.281-0.101-0.419-0.175c3.814-1.469,7.459-3.369,10.816-5.878
		c2.477-1.852,4.762-3.933,6.675-6.371c3.604-4.592,6.16-15.805,13.288-16.68c7.246,2.715,8.922,11.437,13.451,17.067
		c3.397,4.223,7.743,7.537,12.665,9.805c0.803,0.369,1.66,0.658,2.5,0.975C127.459,151.257,119.573,161.68,105.316,160.267z
		 M155.179,131.067c-18.088,2.251-23.236-8.578-34.822-19.615c-3.939-3.753-8.115-6.607-12.429-6.645
		c-2.87-1.469-5.93-0.293-8.556,1.561c-5.351,1.618-8.025,4.355-11.192,9.19c-2.75,4.199-3.444,9.833-6.61,13.752
		c-6.062,7.504-19.407,10.827-28.478,9.438c-28.092-4.3-29.818-34.024-24.535-55.853c2.58-10.66,7.812-19.891,15.17-26.633
		c0.36,0.169,0.777,0.219,1.245-0.035c5.909-3.214,11.957-5.863,18.109-8.056c12.208,1.478,23.503-0.931,35.163-2.732
		c18.24,1.751,38.834,0.398,56.117,5.362c20.129,5.781,30.749,22.201,31.599,41.384c-0.016,0.102-0.064,0.177-0.071,0.287
		C184.765,111.075,175.29,128.563,155.179,131.067z"/>
	<path d="M60.813,85.592c-4.061,7.694-7.754,15.593-11.517,23.436c-0.446,0.929,0.907,1.748,1.398,0.817
		c4.05-7.688,8.185-15.352,11.939-23.189C63.211,85.446,61.452,84.38,60.813,85.592z"/>
	<path d="M90.559,59.074C79.03,77.126,69.151,96.621,59.208,115.585c-0.437,0.834,0.773,1.55,1.266,0.74
		C71.602,98.037,83.215,79.53,92.747,60.353C93.471,58.897,91.443,57.689,90.559,59.074z"/>
	<path d="M122.413,65.455c-2.904,4.545-5.446,9.328-7.943,14.107c-0.61,1.167,1.064,2.152,1.767,1.033
		c2.868-4.565,5.718-9.17,8.18-13.968C125.099,65.298,123.221,64.191,122.413,65.455z"/>
	<path d="M158.449,66.065c-10.944,12.806-19.711,28.541-26.893,43.732c-0.713,1.507,1.393,2.802,2.268,1.325
		c8.664-14.616,18.336-28.664,26.88-43.318C161.501,66.437,159.534,64.794,158.449,66.065z"/>
	<path d="M165.858,94.065c-2.294,4.159-4.26,8.483-6.294,12.774c-0.673,1.421,1.387,2.674,2.136,1.248
		c2.207-4.201,4.479-8.367,6.425-12.696C168.804,93.882,166.691,92.554,165.858,94.065z"/>
	<path d="M238.57,27.173c-0.076-5.826-0.11-11.665-0.205-17.483c-0.008-0.516-0.161-0.929-0.369-1.29
		c0.947-1.06,1.247-2.67-0.076-3.721c-6.343-5.04-16.46-5.69-24.119-3.463c-4.58,1.331-8.318,5.803-7.259,10.169
		c-0.181,0.192-0.406,0.404-0.566,0.585c-2.064,2.333-0.292,5.703,2.332,5.775c0.19,8.954,0.34,17.907,0.501,26.861
		c-0.564,0.817-0.657,1.986,0.051,2.736c0.399,22.73,0.722,45.462,0.863,68.198c0.188,30.228,10.453,88.012-17.633,108.136
		c-5.564,0.047-10.275,1.175-15.986-1.1c-4.159-1.657-7.607-4.335-10.364-7.677c2.539-1.673,4.857-3.781,6.79-6.39
		c3.501-4.728,9.311-17.645,2.135-21.607c-4.627-2.555-16.405,1.283-21.521,1.879c-9.037,1.052-18.269,1.612-27.164,3.547
		c-1.562,0.34-2.133,1.78-1.912,3.093c-0.634,0.226-1.189,0.697-1.381,1.315c-0.091,0.293-0.105,0.594-0.148,0.892
		c-0.891,0.663-1.324,1.955-0.301,2.974c0.251,0.251,0.534,0.454,0.789,0.699c2.793,7.063,14.849,14.356,19.884,16.185
		c1.075,0.391,2.16,0.59,3.243,0.836c4.595,22.916,29.734,40.039,52.529,34.461c0.378,0.487,0.912,0.819,1.638,0.517
		c28.84-11.991,34.142-40.74,35.775-69.375c2.821-49.435,3.115-99.24,2.564-148.829C239.547,32.63,239.531,29.823,238.57,27.173z
		 M204.156,246.458c-12.313,1.961-23.339,3.045-34.751-3.542c-9.524-5.498-15.578-14.145-19.708-24.036
		c4.42,0.375,8.78-0.298,12.725-2.117c2.752,4.362,6.671,7.818,11.569,10.055c5.735,2.62,15.164,4.508,20.567,0.39
		c0.082-0.063,0.099-0.16,0.17-0.23c20.716-9.301,20.832-33.789,20.913-54.865c0.155-40.849-0.413-81.711-1.192-122.559
		c6.357,1.57,13.695,0.816,18.529-3.423c-0.05,26.832-0.215,53.661-0.861,80.492C231.18,165.582,238.195,220.457,204.156,246.458z"
		/>
</g>
<g>
</g>
<g>
</g>
<g>
</g>
<g>
</g>
<g>
</g>
<g>
</g>
<g>
</g>
<g>
</g>
<g>
</g>
<g>
</g>
<g>
</g>
<g>
</g>
<g>
</g>
<g>
</g>
<g>
</g>
</svg>
