<?xml version="1.0" encoding="iso-8859-1"?>
<!-- Generator: Adobe Illustrator 18.0.0, SVG Export Plug-In . SVG Version: 6.00 Build 0)  -->
<!DOCTYPE svg PUBLIC "-//W3C//DTD SVG 1.1//EN" "http://www.w3.org/Graphics/SVG/1.1/DTD/svg11.dtd">
<svg version="1.1" id="Capa_1" xmlns="http://www.w3.org/2000/svg" xmlns:xlink="http://www.w3.org/1999/xlink" x="0px" y="0px"
	 viewBox="0 0 434.451 434.451" style="enable-background:new 0 0 434.451 434.451;" xml:space="preserve">
<g>
	<path style="fill:#7CCC48;" d="M434.451,183.668c0,12.72-5.16,24.24-13.49,32.57c-8.34,8.34-19.86,13.5-32.58,13.5h-233.61
		c-25.44,0-46.06-20.63-46.06-46.07H434.451z"/>
	<path style="fill:#BC842A;" d="M359.191,183.668H1.671c34.97-33.8,79.5-57.78,129.14-67.49c16.05-3.14,32.64-4.78,49.62-4.78
		c16.97,0,33.56,1.64,49.61,4.78C279.681,125.888,324.211,149.868,359.191,183.668z"/>
	<path style="fill:#7CCC48;" d="M359.191,183.668c-6.1,5.89-12.5,11.46-19.18,16.69c-16.99,13.29-35.79,24.36-55.99,32.76
		c-28.6,11.93-59.99,18.51-92.92,18.51c-36.73,0-71.55-8.19-102.72-22.84c-0.17-0.07-0.33-0.15-0.5-0.23
		c-16.32-7.71-31.62-17.2-45.69-28.2c-3.95-3.09-7.81-6.3-11.55-9.63c-2.6-2.3-5.14-4.65-7.63-7.06H359.191z"/>
	<circle style="fill:#FFFFFF;" cx="397.734" cy="186.691" r="14.874"/>
	<circle style="fill:#4D4D4D;" cx="397.734" cy="186.691" r="9.1"/>
	<path style="fill:#6DB240;" d="M284.021,233.118c-28.6,11.93-59.99,18.51-92.92,18.51c-36.93,0-71.92-8.28-103.22-23.07
		c28.72-11.09,59.92-17.16,92.55-17.16C217.281,211.398,252.331,219.148,284.021,233.118z"/>
	<path style="fill:#6DB240;" d="M88.381,228.788c-0.17-0.07-0.33-0.15-0.5-0.23c-16.32-7.71-31.62-17.2-45.69-28.2
		c-3.95-3.09-7.81-6.3-11.55-9.63l42.36,12.63C73.001,203.358,89.251,213.398,88.381,228.788z"/>
	<path style="fill:#7CCC48;" d="M31.322,199.608h48.812v12.717c0,17.09-13.854,30.944-30.944,30.944H0l0-12.339
		C0,213.632,14.023,199.608,31.322,199.608z"/>
	<path style="fill:#A86F1D;" d="M230.041,116.178c-11.38,7.21-29.37,11.85-49.61,11.85s-38.23-4.64-49.62-11.85
		c16.05-3.14,32.64-4.78,49.62-4.78C197.401,111.398,213.991,113.038,230.041,116.178z"/>
	<g>
		<circle style="fill:#A86F1D;" cx="56.264" cy="163.691" r="9"/>
		<circle style="fill:#A86F1D;" cx="91.74" cy="163.691" r="9"/>
		<circle style="fill:#A86F1D;" cx="127.216" cy="163.691" r="9"/>
		<circle style="fill:#A86F1D;" cx="162.692" cy="163.691" r="9"/>
		<circle style="fill:#A86F1D;" cx="198.169" cy="163.691" r="9"/>
		<circle style="fill:#A86F1D;" cx="233.645" cy="163.691" r="9"/>
		<circle style="fill:#A86F1D;" cx="269.121" cy="163.691" r="9"/>
		<circle style="fill:#A86F1D;" cx="304.597" cy="163.691" r="9"/>
	</g>
	<path style="fill:#6DB240;" d="M335.501,229.738h-26.84l3.1-25.61C311.761,204.128,329.501,210.118,335.501,229.738z"/>
	<path style="fill:#7CCC48;" d="M267.026,233.199l37.53-37.53l0.372,0.372c24.607,24.607,24.607,64.503,0,89.11l-37.902,37.902l0,0
		C242.214,298.24,242.214,258.012,267.026,233.199z"/>
</g>
<g>
</g>
<g>
</g>
<g>
</g>
<g>
</g>
<g>
</g>
<g>
</g>
<g>
</g>
<g>
</g>
<g>
</g>
<g>
</g>
<g>
</g>
<g>
</g>
<g>
</g>
<g>
</g>
<g>
</g>
</svg>
