<?xml version="1.0" standalone="no"?>
<!DOCTYPE svg PUBLIC "-//W3C//DTD SVG 20010904//EN"
 "http://www.w3.org/TR/2001/REC-SVG-20010904/DTD/svg10.dtd">
<svg version="1.0" xmlns="http://www.w3.org/2000/svg"
 width="700.000000pt" height="700.000000pt" viewBox="0 0 700.000000 700.000000"
 preserveAspectRatio="xMidYMid meet">
<metadata>
Created by potrace 1.11, written by Peter Selinger 2001-2013
</metadata>
<g transform="translate(0.000000,700.000000) scale(0.100000,-0.100000)"
fill="#000000" stroke="none">
<path d="M3477 6534 c-1 -1 -65 -4 -142 -8 -77 -3 -153 -8 -170 -10 -16 -2
-57 -7 -90 -11 -142 -19 -219 -34 -381 -75 -959 -245 -1722 -945 -2054 -1885
-27 -78 -84 -279 -95 -336 -2 -11 -6 -28 -9 -37 -3 -9 -7 -33 -10 -52 -3 -19
-7 -44 -10 -55 -2 -11 -7 -42 -10 -68 -4 -27 -9 -58 -11 -68 -4 -18 -12 -106
-21 -214 -5 -64 -4 -406 1 -455 3 -25 10 -90 16 -145 13 -125 52 -332 86 -450
14 -49 26 -97 28 -105 5 -24 84 -241 104 -285 74 -161 150 -307 210 -404 368
-590 907 -1016 1568 -1240 111 -38 318 -93 397 -105 20 -3 73 -12 118 -20 46
-8 119 -18 163 -22 44 -3 94 -8 110 -10 45 -5 416 -5 445 0 14 2 65 7 114 11
49 3 92 8 96 10 3 2 33 7 65 10 33 4 62 9 65 10 3 2 26 6 50 10 76 10 279 64
405 107 256 86 484 199 703 345 106 71 194 135 212 153 3 3 34 30 70 60 243
206 480 496 646 792 161 287 294 665 340 968 3 25 8 52 9 60 13 71 17 109 31
260 4 53 5 414 0 450 -2 14 -7 61 -10 105 -6 69 -22 176 -41 290 -41 233 -156
571 -273 800 -53 104 -154 271 -221 365 -312 440 -752 796 -1241 1003 -58 24
-148 59 -200 77 -52 17 -102 34 -110 37 -8 4 -24 8 -35 10 -11 2 -49 12 -85
23 -84 25 -270 61 -381 75 -30 3 -67 8 -84 10 -16 2 -86 7 -155 10 -69 4 -144
8 -168 9 -23 1 -43 1 -45 0z"/>
</g>
</svg>
