<?xml version="1.0" encoding="iso-8859-1"?>
<!-- Generator: Adobe Illustrator 17.1.0, SVG Export Plug-In . SVG Version: 6.00 Build 0)  -->
<!DOCTYPE svg PUBLIC "-//W3C//DTD SVG 1.1//EN" "http://www.w3.org/Graphics/SVG/1.1/DTD/svg11.dtd">
<svg version="1.1" id="Capa_1" xmlns="http://www.w3.org/2000/svg" xmlns:xlink="http://www.w3.org/1999/xlink" x="0px" y="0px"
	 viewBox="0 0 174.25 174.25" style="enable-background:new 0 0 174.25 174.25;" xml:space="preserve">
<path d="M92.378,169.646c-16.266,0-29.5-13.233-29.5-29.5V54.813c0-13.009,8.465-24.078,20.175-27.99
	c0.057-0.13,0.125-0.257,0.204-0.378l5.28-8.072c-0.387-0.238-0.75-0.512-1.085-0.815c-1.004,0.736-2.241,1.172-3.579,1.172h-7.625
	c-2.452,0-4.569-1.463-5.523-3.563H51.156c-0.923,2.172-3.078,3.698-5.583,3.698h-7.625c-1.347,0-2.593-0.441-3.6-1.188
	c-0.297,0.256-0.614,0.488-0.949,0.695l5.28,8.072c0.084,0.128,0.155,0.263,0.213,0.4C50.568,30.777,59,41.829,59,54.813v85.333
	c0,16.267-13.233,29.5-29.5,29.5S0,156.413,0,140.146V54.813c0-12.984,8.433-24.036,20.108-27.968
	c0.058-0.139,0.129-0.272,0.213-0.4l5.28-8.072c-0.387-0.238-0.75-0.512-1.085-0.815c-1.004,0.736-2.241,1.172-3.579,1.172h-7.625
	c-3.343,0-6.063-2.72-6.063-6.063s2.72-6.063,6.063-6.063h7.625c1.022,0,1.985,0.254,2.831,0.702
	c1.365-1.649,3.428-2.702,5.731-2.702c2.329,0,4.411,1.076,5.776,2.757c0.807-0.397,1.714-0.621,2.672-0.621h7.625
	c2.399,0,4.477,1.4,5.459,3.427h19.692c0.954-2.1,3.071-3.563,5.523-3.563h7.625c1.022,0,1.985,0.254,2.831,0.702
	c1.365-1.649,3.428-2.702,5.731-2.702c2.329,0,4.411,1.076,5.776,2.757c0.807-0.397,1.713-0.621,2.672-0.621h7.625
	c2.625,0,4.866,1.678,5.707,4.017c3.837,1.037,13.764,4.27,23.77,12.034c11.564,8.975,25.349,25.921,25.349,55.688v57.733
	c6.207,1.175,10.917,6.64,10.917,13.184c0,7.398-6.019,13.417-13.417,13.417s-13.417-6.019-13.417-13.417
	c0-6.544,4.709-12.009,10.917-13.184V78.479c0-22.191-7.823-39.556-23.251-51.611c-8.625-6.738-17.363-9.866-21.325-11.036
	c-1.049,1.812-3.01,3.033-5.25,3.033h-7.625c-1.347,0-2.592-0.441-3.6-1.188c-0.297,0.256-0.614,0.488-0.949,0.695l5.28,8.072
	c0.088,0.135,0.163,0.276,0.222,0.423c11.641,3.951,20.042,14.986,20.042,27.945v85.333
	C121.878,156.413,108.644,169.646,92.378,169.646z M67.892,140.979c0.44,13.125,11.255,23.667,24.486,23.667
	s24.045-10.542,24.486-23.667H67.892z M5.014,140.979c0.44,13.125,11.255,23.667,24.486,23.667s24.045-10.542,24.486-23.667H5.014z
	 M160.833,140.979c-4.641,0-8.417,3.775-8.417,8.417s3.775,8.417,8.417,8.417c4.641,0,8.417-3.775,8.417-8.417
	S165.474,140.979,160.833,140.979z M67.878,135.979h49v-72h-49V135.979z M5,135.979h49v-72H5V135.979z M67.878,58.979h49v-4.166
	c0-13.51-10.991-24.5-24.5-24.5s-24.5,10.99-24.5,24.5V58.979z M5,58.979h49v-4.166c0-13.51-10.991-24.5-24.5-24.5
	S5,41.303,5,54.813V58.979z M89.971,25.313h4.928l-2.464-3.767L89.971,25.313z M27.036,25.313h4.928L29.5,21.546L27.036,25.313z
	 M92.435,9.604c-1.344,0-2.438,1.094-2.438,2.438s1.093,2.438,2.438,2.438c1.184,0,2.173-0.848,2.392-1.968
	c0.008-0.171,0.023-0.339,0.045-0.505C94.854,10.678,93.768,9.604,92.435,9.604z M29.5,9.604c-1.344,0-2.438,1.094-2.438,2.438
	s1.093,2.438,2.438,2.438c1.185,0,2.175-0.85,2.393-1.972c0.008-0.168,0.023-0.333,0.044-0.497C31.92,10.68,30.833,9.604,29.5,9.604
	z M99.824,12.893c0.046,0.543,0.503,0.972,1.059,0.972h7.625c0.586,0,1.063-0.477,1.063-1.063s-0.477-1.063-1.063-1.063h-7.625
	c-0.49,0-0.903,0.333-1.026,0.785C99.849,12.648,99.838,12.771,99.824,12.893z M36.889,12.89c0.045,0.545,0.503,0.975,1.059,0.975
	h7.625c0.586,0,1.063-0.477,1.063-1.063s-0.477-1.063-1.063-1.063h-7.625c-0.491,0-0.905,0.335-1.026,0.787
	C36.914,12.649,36.903,12.77,36.889,12.89z M76.248,11.604c-0.586,0-1.063,0.477-1.063,1.063s0.477,1.063,1.063,1.063h7.625
	c0.586,0,1.063-0.477,1.063-1.063s-0.477-1.063-1.063-1.063H76.248z M13.313,11.604c-0.586,0-1.063,0.477-1.063,1.063
	s0.477,1.063,1.063,1.063h7.625c0.586,0,1.063-0.477,1.063-1.063s-0.477-1.063-1.063-1.063H13.313z M160.833,155.563
	c-3.4,0-6.167-2.767-6.167-6.167s2.766-6.167,6.167-6.167s6.167,2.767,6.167,6.167S164.234,155.563,160.833,155.563z
	 M160.833,148.229c-0.643,0-1.167,0.523-1.167,1.167s0.523,1.167,1.167,1.167S162,150.04,162,149.396
	S161.477,148.229,160.833,148.229z"/>
<g>
</g>
<g>
</g>
<g>
</g>
<g>
</g>
<g>
</g>
<g>
</g>
<g>
</g>
<g>
</g>
<g>
</g>
<g>
</g>
<g>
</g>
<g>
</g>
<g>
</g>
<g>
</g>
<g>
</g>
</svg>
