<?xml version="1.0" encoding="UTF-8"?>

<svg version="1.2" baseProfile="tiny" width="150mm" height="150mm" viewBox="0 0 15000 15000" preserveAspectRatio="xMidYMid" fill-rule="evenodd" clip-path="url(#presentation_clip_path)" stroke-width="28.222" stroke-linejoin="round" xmlns="http://www.w3.org/2000/svg" xmlns:ooo="http://xml.openoffice.org/svg/export" xmlns:xlink="http://www.w3.org/1999/xlink" xml:space="preserve">
 <defs class="ClipPathGroup">
  <clipPath id="presentation_clip_path" clipPathUnits="userSpaceOnUse">
   <rect x="0" y="0" width="15000" height="15000"/>
  </clipPath>
 </defs>
 <defs class="TextShapeIndex">
  <g ooo:slide="id1" ooo:id-list="id3 id4 id5 id6 id7 id8 id9 id10 id11 id12 id13 id14 id15 id16"/>
 </defs>
 <defs class="EmbeddedBulletChars">
  <g id="bullet-char-template(57356)" transform="scale(0.00048828125,-0.00048828125)">
   <path d="M 580,1141 L 1163,571 580,0 -4,571 580,1141 Z"/>
  </g>
  <g id="bullet-char-template(57354)" transform="scale(0.00048828125,-0.00048828125)">
   <path d="M 8,1128 L 1137,1128 1137,0 8,0 8,1128 Z"/>
  </g>
  <g id="bullet-char-template(10146)" transform="scale(0.00048828125,-0.00048828125)">
   <path d="M 174,0 L 602,739 174,1481 1456,739 174,0 Z M 1358,739 L 309,1346 659,739 1358,739 Z"/>
  </g>
  <g id="bullet-char-template(10132)" transform="scale(0.00048828125,-0.00048828125)">
   <path d="M 2015,739 L 1276,0 717,0 1260,543 174,543 174,936 1260,936 717,1481 1274,1481 2015,739 Z"/>
  </g>
  <g id="bullet-char-template(10007)" transform="scale(0.00048828125,-0.00048828125)">
   <path d="M 0,-2 C -7,14 -16,27 -25,37 L 356,567 C 262,823 215,952 215,954 215,979 228,992 255,992 264,992 276,990 289,987 310,991 331,999 354,1012 L 381,999 492,748 772,1049 836,1024 860,1049 C 881,1039 901,1025 922,1006 886,937 835,863 770,784 769,783 710,716 594,584 L 774,223 C 774,196 753,168 711,139 L 727,119 C 717,90 699,76 672,76 641,76 570,178 457,381 L 164,-76 C 142,-110 111,-127 72,-127 30,-127 9,-110 8,-76 1,-67 -2,-52 -2,-32 -2,-23 -1,-13 0,-2 Z"/>
  </g>
  <g id="bullet-char-template(10004)" transform="scale(0.00048828125,-0.00048828125)">
   <path d="M 285,-33 C 182,-33 111,30 74,156 52,228 41,333 41,471 41,549 55,616 82,672 116,743 169,778 240,778 293,778 328,747 346,684 L 369,508 C 377,444 397,411 428,410 L 1163,1116 C 1174,1127 1196,1133 1229,1133 1271,1133 1292,1118 1292,1087 L 1292,965 C 1292,929 1282,901 1262,881 L 442,47 C 390,-6 338,-33 285,-33 Z"/>
  </g>
  <g id="bullet-char-template(9679)" transform="scale(0.00048828125,-0.00048828125)">
   <path d="M 813,0 C 632,0 489,54 383,161 276,268 223,411 223,592 223,773 276,916 383,1023 489,1130 632,1184 813,1184 992,1184 1136,1130 1245,1023 1353,916 1407,772 1407,592 1407,412 1353,268 1245,161 1136,54 992,0 813,0 Z"/>
  </g>
  <g id="bullet-char-template(8226)" transform="scale(0.00048828125,-0.00048828125)">
   <path d="M 346,457 C 273,457 209,483 155,535 101,586 74,649 74,723 74,796 101,859 155,911 209,963 273,989 346,989 419,989 480,963 531,910 582,859 608,796 608,723 608,648 583,586 532,535 482,483 420,457 346,457 Z"/>
  </g>
  <g id="bullet-char-template(8211)" transform="scale(0.00048828125,-0.00048828125)">
   <path d="M -4,459 L 1135,459 1135,606 -4,606 -4,459 Z"/>
  </g>
 </defs>
 <defs class="TextEmbeddedBitmaps"/>
 <g>
  <g id="id2" class="Master_Slide">
   <g id="bg-id2" class="Background"/>
   <g id="bo-id2" class="BackgroundObjects"/>
  </g>
 </g>
 <g class="SlideGroup">
  <g>
   <g id="id1" class="Slide" clip-path="url(#presentation_clip_path)">
    <g class="Page">
     <g class="com.sun.star.drawing.CustomShape">
      <g id="id3">
       <path fill="rgb(114,159,207)" stroke="none" d="M 7500,1100 C 11129,1100 13900,3871 13900,7500 13900,11129 11129,13900 7500,13900 3871,13900 1100,11129 1100,7500 1100,3871 3871,1100 7500,1100 Z M 1100,1100 L 1100,1100 Z M 13901,13901 L 13901,13901 Z"/>
       <path fill="none" stroke="rgb(114,159,207)" stroke-width="200" stroke-linejoin="round" d="M 7500,1100 C 11129,1100 13900,3871 13900,7500 13900,11129 11129,13900 7500,13900 3871,13900 1100,11129 1100,7500 1100,3871 3871,1100 7500,1100 Z"/>
      </g>
     </g>
     <g class="com.sun.star.drawing.CustomShape">
      <g id="id4">
       <path fill="rgb(255,128,128)" stroke="none" d="M 7550,1500 C 10923,1500 13500,4077 13500,7450 13500,10823 10923,13400 7550,13400 4177,13400 1600,10823 1600,7450 1600,4077 4177,1500 7550,1500 Z M 1600,1500 L 1600,1500 Z M 13501,13401 L 13501,13401 Z"/>
       <path fill="none" stroke="rgb(114,159,207)" stroke-width="200" stroke-linejoin="round" d="M 7550,1500 C 10923,1500 13500,4077 13500,7450 13500,10823 10923,13400 7550,13400 4177,13400 1600,10823 1600,7450 1600,4077 4177,1500 7550,1500 Z"/>
      </g>
     </g>
     <g class="com.sun.star.drawing.CustomShape">
      <g id="id5">
       <path fill="rgb(114,159,207)" stroke="none" d="M 8581,7999 C 8511,7999 8441,8069 8441,8139 L 8441,11459 C 8441,11529 8511,11600 8581,11600 L 8581,11600 C 8651,11600 8722,11529 8722,11459 L 8722,8139 C 8722,8069 8651,7999 8581,7999 L 8581,7999 Z M 8441,7999 L 8441,7999 Z M 8722,11600 L 8722,11600 Z"/>
       <path fill="none" stroke="rgb(114,159,207)" stroke-width="100" stroke-linejoin="round" d="M 8581,7999 C 8511,7999 8441,8069 8441,8139 L 8441,11459 C 8441,11529 8511,11600 8581,11600 L 8581,11600 C 8651,11600 8722,11529 8722,11459 L 8722,8139 C 8722,8069 8651,7999 8581,7999 L 8581,7999 Z"/>
      </g>
     </g>
     <g class="com.sun.star.drawing.CustomShape">
      <g id="id6">
       <path fill="rgb(114,159,207)" stroke="none" d="M 7400,2400 C 6600,2400 5800,3200 5800,4000 L 5800,7300 C 5800,8100 6600,8900 7400,8900 L 7400,8900 C 8200,8900 9001,8100 9001,7300 L 9001,4000 C 9001,3200 8200,2400 7400,2400 L 7400,2400 Z M 5800,2400 L 5800,2400 Z M 9001,8901 L 9001,8901 Z"/>
       <path fill="none" stroke="rgb(114,159,207)" stroke-width="200" stroke-linejoin="round" d="M 7400,2400 C 6600,2400 5800,3200 5800,4000 L 5800,7300 C 5800,8100 6600,8900 7400,8900 L 7400,8900 C 8200,8900 9001,8100 9001,7300 L 9001,4000 C 9001,3200 8200,2400 7400,2400 L 7400,2400 Z"/>
      </g>
     </g>
     <g class="com.sun.star.drawing.CustomShape">
      <g id="id7">
       <path fill="rgb(114,159,207)" stroke="none" d="M 7740,7698 C 7670,7698 7600,7768 7600,7838 L 7600,11158 C 7600,11228 7670,11299 7740,11299 L 7740,11299 C 7810,11299 7881,11228 7881,11158 L 7881,7838 C 7881,7768 7810,7698 7740,7698 L 7740,7698 Z M 7600,7698 L 7600,7698 Z M 7881,11299 L 7881,11299 Z"/>
       <path fill="none" stroke="rgb(114,159,207)" stroke-width="100" stroke-linejoin="round" d="M 7740,7698 C 7670,7698 7600,7768 7600,7838 L 7600,11158 C 7600,11228 7670,11299 7740,11299 L 7740,11299 C 7810,11299 7881,11228 7881,11158 L 7881,7838 C 7881,7768 7810,7698 7740,7698 L 7740,7698 Z"/>
      </g>
     </g>
     <g class="com.sun.star.drawing.CustomShape">
      <g id="id8">
       <path fill="rgb(114,159,207)" stroke="none" d="M 8161,7999 C 8091,7999 8021,8069 8021,8139 L 8021,11460 C 8021,11530 8091,11600 8161,11600 L 8161,11600 C 8231,11600 8301,11530 8301,11460 L 8301,8139 C 8301,8069 8231,7999 8161,7999 L 8161,7999 Z M 8021,7999 L 8021,7999 Z M 8301,11600 L 8301,11600 Z"/>
       <path fill="none" stroke="rgb(114,159,207)" stroke-width="100" stroke-linejoin="round" d="M 8161,7999 C 8091,7999 8021,8069 8021,8139 L 8021,11460 C 8021,11530 8091,11600 8161,11600 L 8161,11600 C 8231,11600 8301,11530 8301,11460 L 8301,8139 C 8301,8069 8231,7999 8161,7999 L 8161,7999 Z"/>
      </g>
     </g>
     <g class="com.sun.star.drawing.CustomShape">
      <g id="id9">
       <path fill="rgb(114,159,207)" stroke="none" d="M 9061,7899 C 8991,7899 8921,7969 8921,8039 L 8921,11359 C 8921,11429 8991,11500 9061,11500 L 9061,11500 C 9131,11500 9202,11429 9202,11359 L 9202,8039 C 9202,7969 9131,7899 9061,7899 L 9061,7899 Z M 8921,7899 L 8921,7899 Z M 9202,11500 L 9202,11500 Z"/>
       <path fill="none" stroke="rgb(114,159,207)" stroke-width="100" stroke-linejoin="round" d="M 9061,7899 C 8991,7899 8921,7969 8921,8039 L 8921,11359 C 8921,11429 8991,11500 9061,11500 L 9061,11500 C 9131,11500 9202,11429 9202,11359 L 9202,8039 C 9202,7969 9131,7899 9061,7899 L 9061,7899 Z"/>
      </g>
     </g>
     <g class="com.sun.star.drawing.CustomShape">
      <g id="id10">
       <path fill="rgb(114,159,207)" stroke="none" d="M 6760,7600 C 6690,7600 6620,7670 6620,7740 L 6620,11060 C 6620,11130 6690,11201 6760,11201 L 6760,11201 C 6830,11201 6901,11130 6901,11060 L 6901,7740 C 6901,7670 6830,7600 6760,7600 L 6760,7600 Z M 6620,7600 L 6620,7600 Z M 6901,11201 L 6901,11201 Z"/>
       <path fill="none" stroke="rgb(114,159,207)" stroke-width="100" stroke-linejoin="round" d="M 6760,7600 C 6690,7600 6620,7670 6620,7740 L 6620,11060 C 6620,11130 6690,11201 6760,11201 L 6760,11201 C 6830,11201 6901,11130 6901,11060 L 6901,7740 C 6901,7670 6830,7600 6760,7600 L 6760,7600 Z"/>
      </g>
     </g>
     <g class="com.sun.star.drawing.CustomShape">
      <g id="id11">
       <path fill="rgb(114,159,207)" stroke="none" d="M 7240,8200 C 7170,8200 7100,8270 7100,8340 L 7100,11660 C 7100,11730 7170,11801 7240,11801 L 7240,11801 C 7310,11801 7381,11730 7381,11660 L 7381,8340 C 7381,8270 7310,8200 7240,8200 L 7240,8200 Z M 7100,8200 L 7100,8200 Z M 7381,11801 L 7381,11801 Z"/>
       <path fill="none" stroke="rgb(114,159,207)" stroke-width="100" stroke-linejoin="round" d="M 7240,8200 C 7170,8200 7100,8270 7100,8340 L 7100,11660 C 7100,11730 7170,11801 7240,11801 L 7240,11801 C 7310,11801 7381,11730 7381,11660 L 7381,8340 C 7381,8270 7310,8200 7240,8200 L 7240,8200 Z"/>
      </g>
     </g>
     <g class="com.sun.star.drawing.CustomShape">
      <g id="id12">
       <path fill="rgb(114,159,207)" stroke="none" d="M 5743,7800 C 5673,7800 5603,7870 5603,7940 L 5603,11260 C 5603,11330 5673,11401 5743,11401 L 5743,11401 C 5813,11401 5884,11330 5884,11260 L 5884,7940 C 5884,7870 5813,7800 5743,7800 L 5743,7800 Z M 5603,7800 L 5603,7800 Z M 5884,11401 L 5884,11401 Z"/>
       <path fill="none" stroke="rgb(114,159,207)" stroke-width="100" stroke-linejoin="round" d="M 5743,7800 C 5673,7800 5603,7870 5603,7940 L 5603,11260 C 5603,11330 5673,11401 5743,11401 L 5743,11401 C 5813,11401 5884,11330 5884,11260 L 5884,7940 C 5884,7870 5813,7800 5743,7800 L 5743,7800 Z"/>
      </g>
     </g>
     <g class="com.sun.star.drawing.CustomShape">
      <g id="id13">
       <path fill="rgb(114,159,207)" stroke="none" d="M 6264,7901 C 6194,7901 6124,7971 6124,8041 L 6124,11361 C 6124,11431 6194,11502 6264,11502 L 6264,11502 C 6334,11502 6405,11431 6405,11361 L 6405,8041 C 6405,7971 6334,7901 6264,7901 L 6264,7901 Z M 6124,7901 L 6124,7901 Z M 6405,11502 L 6405,11502 Z"/>
       <path fill="none" stroke="rgb(114,159,207)" stroke-width="100" stroke-linejoin="round" d="M 6264,7901 C 6194,7901 6124,7971 6124,8041 L 6124,11361 C 6124,11431 6194,11502 6264,11502 L 6264,11502 C 6334,11502 6405,11431 6405,11361 L 6405,8041 C 6405,7971 6334,7901 6264,7901 L 6264,7901 Z"/>
      </g>
     </g>
     <g class="com.sun.star.drawing.CustomShape">
      <g id="id14">
       <path fill="rgb(114,159,207)" stroke="none" d="M 7400,8900 L 5800,8900 5800,7500 9000,7500 9000,8900 7400,8900 Z"/>
       <path fill="none" stroke="rgb(114,159,207)" stroke-width="200" stroke-linejoin="round" d="M 7400,8900 L 5800,8900 5800,7500 9000,7500 9000,8900 7400,8900 Z"/>
      </g>
     </g>
     <g class="com.sun.star.drawing.CustomShape">
      <g id="id15">
       <path fill="rgb(255,255,255)" stroke="none" d="M 6850,4300 C 6935,4300 7000,4365 7000,4450 7000,4535 6935,4600 6850,4600 6765,4600 6700,4535 6700,4450 6700,4365 6765,4300 6850,4300 Z M 6700,4300 L 6700,4300 Z M 7001,4601 L 7001,4601 Z"/>
       <path fill="none" stroke="rgb(255,255,255)" stroke-width="200" stroke-linejoin="round" d="M 6850,4300 C 6935,4300 7000,4365 7000,4450 7000,4535 6935,4600 6850,4600 6765,4600 6700,4535 6700,4450 6700,4365 6765,4300 6850,4300 Z"/>
      </g>
     </g>
     <g class="com.sun.star.drawing.CustomShape">
      <g id="id16">
       <path fill="rgb(255,255,255)" stroke="none" d="M 7951,4301 C 8036,4301 8101,4366 8101,4451 8101,4536 8036,4601 7951,4601 7866,4601 7801,4536 7801,4451 7801,4366 7866,4301 7951,4301 Z M 7801,4301 L 7801,4301 Z M 8102,4602 L 8102,4602 Z"/>
       <path fill="none" stroke="rgb(255,255,255)" stroke-width="200" stroke-linejoin="round" d="M 7951,4301 C 8036,4301 8101,4366 8101,4451 8101,4536 8036,4601 7951,4601 7866,4601 7801,4536 7801,4451 7801,4366 7866,4301 7951,4301 Z"/>
      </g>
     </g>
    </g>
   </g>
  </g>
 </g>
</svg>