<?xml version="1.0" encoding="UTF-8"?>

<svg version="1.2" baseProfile="tiny" width="154mm" height="150mm" viewBox="0 0 15400 15000" preserveAspectRatio="xMidYMid" fill-rule="evenodd" clip-path="url(#presentation_clip_path)" stroke-width="28.222" stroke-linejoin="round" xmlns="http://www.w3.org/2000/svg" xmlns:ooo="http://xml.openoffice.org/svg/export" xmlns:xlink="http://www.w3.org/1999/xlink" xml:space="preserve">
 <defs class="ClipPathGroup">
  <clipPath id="presentation_clip_path" clipPathUnits="userSpaceOnUse">
   <rect x="0" y="0" width="15400" height="15000"/>
  </clipPath>
 </defs>
 <defs class="TextShapeIndex">
  <g ooo:slide="id1" ooo:id-list="id3 id4 id5 id6 id7 id8 id9 id10 id11 id12 id13 id14 id15 id16 id17 id18 id19"/>
 </defs>
 <defs class="EmbeddedBulletChars">
  <g id="bullet-char-template(57356)" transform="scale(0.00048828125,-0.00048828125)">
   <path d="M 580,1141 L 1163,571 580,0 -4,571 580,1141 Z"/>
  </g>
  <g id="bullet-char-template(57354)" transform="scale(0.00048828125,-0.00048828125)">
   <path d="M 8,1128 L 1137,1128 1137,0 8,0 8,1128 Z"/>
  </g>
  <g id="bullet-char-template(10146)" transform="scale(0.00048828125,-0.00048828125)">
   <path d="M 174,0 L 602,739 174,1481 1456,739 174,0 Z M 1358,739 L 309,1346 659,739 1358,739 Z"/>
  </g>
  <g id="bullet-char-template(10132)" transform="scale(0.00048828125,-0.00048828125)">
   <path d="M 2015,739 L 1276,0 717,0 1260,543 174,543 174,936 1260,936 717,1481 1274,1481 2015,739 Z"/>
  </g>
  <g id="bullet-char-template(10007)" transform="scale(0.00048828125,-0.00048828125)">
   <path d="M 0,-2 C -7,14 -16,27 -25,37 L 356,567 C 262,823 215,952 215,954 215,979 228,992 255,992 264,992 276,990 289,987 310,991 331,999 354,1012 L 381,999 492,748 772,1049 836,1024 860,1049 C 881,1039 901,1025 922,1006 886,937 835,863 770,784 769,783 710,716 594,584 L 774,223 C 774,196 753,168 711,139 L 727,119 C 717,90 699,76 672,76 641,76 570,178 457,381 L 164,-76 C 142,-110 111,-127 72,-127 30,-127 9,-110 8,-76 1,-67 -2,-52 -2,-32 -2,-23 -1,-13 0,-2 Z"/>
  </g>
  <g id="bullet-char-template(10004)" transform="scale(0.00048828125,-0.00048828125)">
   <path d="M 285,-33 C 182,-33 111,30 74,156 52,228 41,333 41,471 41,549 55,616 82,672 116,743 169,778 240,778 293,778 328,747 346,684 L 369,508 C 377,444 397,411 428,410 L 1163,1116 C 1174,1127 1196,1133 1229,1133 1271,1133 1292,1118 1292,1087 L 1292,965 C 1292,929 1282,901 1262,881 L 442,47 C 390,-6 338,-33 285,-33 Z"/>
  </g>
  <g id="bullet-char-template(9679)" transform="scale(0.00048828125,-0.00048828125)">
   <path d="M 813,0 C 632,0 489,54 383,161 276,268 223,411 223,592 223,773 276,916 383,1023 489,1130 632,1184 813,1184 992,1184 1136,1130 1245,1023 1353,916 1407,772 1407,592 1407,412 1353,268 1245,161 1136,54 992,0 813,0 Z"/>
  </g>
  <g id="bullet-char-template(8226)" transform="scale(0.00048828125,-0.00048828125)">
   <path d="M 346,457 C 273,457 209,483 155,535 101,586 74,649 74,723 74,796 101,859 155,911 209,963 273,989 346,989 419,989 480,963 531,910 582,859 608,796 608,723 608,648 583,586 532,535 482,483 420,457 346,457 Z"/>
  </g>
  <g id="bullet-char-template(8211)" transform="scale(0.00048828125,-0.00048828125)">
   <path d="M -4,459 L 1135,459 1135,606 -4,606 -4,459 Z"/>
  </g>
 </defs>
 <defs class="TextEmbeddedBitmaps"/>
 <g>
  <g id="id2" class="Master_Slide">
   <g id="bg-id2" class="Background"/>
   <g id="bo-id2" class="BackgroundObjects"/>
  </g>
 </g>
 <g class="SlideGroup">
  <g>
   <g id="id1" class="Slide" clip-path="url(#presentation_clip_path)">
    <g class="Page">
     <g class="Group">
      <g class="com.sun.star.drawing.CustomShape">
       <g id="id3">
        <path fill="rgb(255,255,255)" stroke="none" d="M 6374,5499 L 8924,5499 10200,7499 8924,9499 6374,9499 5099,7499 6374,5499 Z M 5099,5499 L 5099,5499 Z M 10200,9500 L 10200,9500 Z"/>
        <path fill="none" stroke="rgb(52,101,164)" d="M 6374,5499 L 8924,5499 10200,7499 8924,9499 6374,9499 5099,7499 6374,5499 Z"/>
        <path fill="none" stroke="rgb(52,101,164)" d="M 5099,5499 L 5099,5499 Z"/>
        <path fill="none" stroke="rgb(52,101,164)" d="M 10200,9500 L 10200,9500 Z"/>
       </g>
      </g>
      <g class="com.sun.star.drawing.CustomShape">
       <g id="id4">
        <path fill="rgb(255,255,255)" stroke="none" d="M 6375,1300 L 8925,1300 10201,3300 8925,5300 6375,5300 5100,3300 6375,1300 Z M 5100,1300 L 5100,1300 Z M 10201,5301 L 10201,5301 Z"/>
        <path fill="none" stroke="rgb(52,101,164)" d="M 6375,1300 L 8925,1300 10201,3300 8925,5300 6375,5300 5100,3300 6375,1300 Z"/>
        <path fill="none" stroke="rgb(52,101,164)" d="M 5100,1300 L 5100,1300 Z"/>
        <path fill="none" stroke="rgb(52,101,164)" d="M 10201,5301 L 10201,5301 Z"/>
       </g>
      </g>
      <g class="com.sun.star.drawing.CustomShape">
       <g id="id5">
        <path fill="rgb(255,255,255)" stroke="none" d="M 10375,3400 L 12925,3400 14201,5400 12925,7400 10375,7400 9100,5400 10375,3400 Z M 9100,3400 L 9100,3400 Z M 14201,7401 L 14201,7401 Z"/>
        <path fill="none" stroke="rgb(52,101,164)" d="M 10375,3400 L 12925,3400 14201,5400 12925,7400 10375,7400 9100,5400 10375,3400 Z"/>
        <path fill="none" stroke="rgb(52,101,164)" d="M 9100,3400 L 9100,3400 Z"/>
        <path fill="none" stroke="rgb(52,101,164)" d="M 14201,7401 L 14201,7401 Z"/>
       </g>
      </g>
      <g class="com.sun.star.drawing.CustomShape">
       <g id="id6">
        <path fill="rgb(255,255,255)" stroke="none" d="M 10375,7600 L 12925,7600 14201,9600 12925,11600 10375,11600 9100,9600 10375,7600 Z M 9100,7600 L 9100,7600 Z M 14201,11601 L 14201,11601 Z"/>
        <path fill="none" stroke="rgb(52,101,164)" d="M 10375,7600 L 12925,7600 14201,9600 12925,11600 10375,11600 9100,9600 10375,7600 Z"/>
        <path fill="none" stroke="rgb(52,101,164)" d="M 9100,7600 L 9100,7600 Z"/>
        <path fill="none" stroke="rgb(52,101,164)" d="M 14201,11601 L 14201,11601 Z"/>
       </g>
      </g>
      <g class="com.sun.star.drawing.CustomShape">
       <g id="id7">
        <path fill="rgb(255,255,255)" stroke="none" d="M 6375,9700 L 8925,9700 10201,11700 8925,13700 6375,13700 5100,11700 6375,9700 Z M 5100,9700 L 5100,9700 Z M 10201,13701 L 10201,13701 Z"/>
        <path fill="none" stroke="rgb(52,101,164)" d="M 6375,9700 L 8925,9700 10201,11700 8925,13700 6375,13700 5100,11700 6375,9700 Z"/>
        <path fill="none" stroke="rgb(52,101,164)" d="M 5100,9700 L 5100,9700 Z"/>
        <path fill="none" stroke="rgb(52,101,164)" d="M 10201,13701 L 10201,13701 Z"/>
       </g>
      </g>
      <g class="com.sun.star.drawing.CustomShape">
       <g id="id8">
        <path fill="rgb(255,255,255)" stroke="none" d="M 2375,7600 L 4925,7600 6201,9600 4925,11600 2375,11600 1100,9600 2375,7600 Z M 1100,7600 L 1100,7600 Z M 6201,11601 L 6201,11601 Z"/>
        <path fill="none" stroke="rgb(52,101,164)" d="M 2375,7600 L 4925,7600 6201,9600 4925,11600 2375,11600 1100,9600 2375,7600 Z"/>
        <path fill="none" stroke="rgb(52,101,164)" d="M 1100,7600 L 1100,7600 Z"/>
        <path fill="none" stroke="rgb(52,101,164)" d="M 6201,11601 L 6201,11601 Z"/>
       </g>
      </g>
      <g class="com.sun.star.drawing.CustomShape">
       <g id="id9">
        <path fill="rgb(255,255,255)" stroke="none" d="M 2374,3399 L 4924,3399 6200,5399 4924,7399 2374,7399 1099,5399 2374,3399 Z M 1099,3399 L 1099,3399 Z M 6200,7400 L 6200,7400 Z"/>
        <path fill="none" stroke="rgb(52,101,164)" d="M 2374,3399 L 4924,3399 6200,5399 4924,7399 2374,7399 1099,5399 2374,3399 Z"/>
        <path fill="none" stroke="rgb(52,101,164)" d="M 1099,3399 L 1099,3399 Z"/>
        <path fill="none" stroke="rgb(52,101,164)" d="M 6200,7400 L 6200,7400 Z"/>
       </g>
      </g>
      <g class="Graphic">
       <g id="id10">
        <path fill="rgb(0,0,0)" stroke="none" d="M 3889,6712 C 3610,6712 3384,6485 3384,6207 L 3384,4746 C 3384,4523 3529,4334 3729,4267 3730,4265 3731,4262 3733,4260 L 3823,4122 C 3817,4118 3810,4113 3805,4108 3787,4121 3766,4128 3743,4128 L 3613,4128 C 3571,4128 3535,4103 3518,4067 L 3183,4067 C 3167,4104 3131,4130 3088,4130 L 2957,4130 C 2934,4130 2913,4123 2896,4110 2890,4115 2885,4119 2879,4122 L 2970,4260 C 2971,4262 2972,4265 2973,4267 3173,4334 3318,4524 3318,4746 L 3318,6207 C 3318,6485 3091,6712 2813,6712 2534,6712 2308,6485 2308,6207 L 2308,4746 C 2308,4524 2452,4334 2652,4267 2653,4265 2654,4262 2655,4260 L 2746,4122 C 2739,4118 2733,4113 2727,4108 2710,4121 2689,4128 2666,4128 L 2535,4128 C 2478,4128 2432,4082 2432,4024 2432,3967 2478,3921 2535,3921 L 2666,3921 C 2683,3921 2700,3925 2714,3933 2738,3904 2773,3886 2813,3886 2852,3886 2888,3905 2911,3934 2925,3927 2941,3923 2957,3923 L 3088,3923 C 3129,3923 3164,3947 3181,3982 L 3518,3982 C 3535,3946 3571,3921 3613,3921 L 3743,3921 C 3761,3921 3777,3925 3792,3933 3815,3904 3850,3886 3890,3886 3930,3886 3965,3905 3989,3934 4003,3927 4018,3923 4034,3923 L 4165,3923 C 4210,3923 4248,3952 4263,3992 4328,4009 4498,4065 4670,4198 4868,4351 5104,4641 5104,5151 L 5104,6139 C 5210,6159 5290,6253 5290,6365 5290,6492 5187,6595 5061,6595 4934,6595 4831,6492 4831,6365 4831,6253 4912,6159 5018,6139 L 5018,5151 C 5018,4771 4884,4474 4620,4267 4472,4152 4323,4099 4255,4079 4237,4110 4203,4130 4165,4130 L 4034,4130 C 4011,4130 3990,4123 3973,4110 3968,4115 3962,4119 3957,4122 L 4047,4260 C 4049,4263 4050,4265 4051,4267 4250,4335 4394,4524 4394,4746 L 4394,6207 C 4394,6485 4167,6712 3889,6712 L 3889,6712 Z M 3470,6221 C 3477,6446 3662,6626 3889,6626 4115,6626 4301,6446 4308,6221 L 3470,6221 3470,6221 Z M 2393,6221 C 2401,6446 2586,6626 2813,6626 3039,6626 3224,6446 3232,6221 L 2393,6221 2393,6221 Z M 5061,6221 C 4981,6221 4917,6286 4917,6365 4917,6444 4981,6509 5061,6509 5140,6509 5205,6444 5205,6365 5205,6286 5140,6221 5061,6221 L 5061,6221 Z M 3470,6135 L 4308,6135 4308,4903 3470,4903 3470,6135 3470,6135 Z M 2393,6135 L 3232,6135 3232,4903 2393,4903 2393,6135 2393,6135 Z M 3470,4817 L 4308,4817 4308,4746 C 4308,4515 4120,4326 3889,4326 3658,4326 3470,4515 3470,4746 L 3470,4817 3470,4817 Z M 2393,4817 L 3232,4817 3232,4746 C 3232,4515 3044,4326 2813,4326 2581,4326 2393,4515 2393,4746 L 2393,4817 2393,4817 Z M 3848,4241 L 3932,4241 3890,4176 3848,4241 3848,4241 Z M 2770,4241 L 2855,4241 2813,4176 2770,4241 2770,4241 Z M 3890,3972 C 3867,3972 3848,3991 3848,4014 3848,4037 3867,4055 3890,4055 3910,4055 3927,4041 3931,4022 3931,4019 3931,4016 3932,4013 3931,3990 3913,3972 3890,3972 L 3890,3972 Z M 2813,3972 C 2790,3972 2771,3991 2771,4014 2771,4037 2790,4055 2813,4055 2833,4055 2850,4041 2854,4022 2854,4019 2854,4016 2854,4013 2854,3990 2835,3972 2813,3972 L 2813,3972 Z M 4016,4028 C 4017,4038 4025,4045 4035,4045 L 4165,4045 C 4175,4045 4183,4037 4183,4027 4183,4017 4175,4009 4165,4009 L 4035,4009 C 4026,4009 4019,4014 4017,4022 4017,4024 4017,4026 4016,4028 L 4016,4028 Z M 2939,4028 C 2940,4038 2948,4045 2957,4045 L 3088,4045 C 3098,4045 3106,4037 3106,4027 3106,4017 3098,4009 3088,4009 L 2957,4009 C 2949,4009 2942,4014 2940,4022 2939,4024 2939,4026 2939,4028 L 2939,4028 Z M 3613,4006 C 3603,4006 3595,4014 3595,4024 3595,4034 3603,4043 3613,4043 L 3743,4043 C 3753,4043 3762,4034 3762,4024 3762,4014 3753,4006 3743,4006 L 3613,4006 3613,4006 Z M 2535,4006 C 2525,4006 2517,4014 2517,4024 2517,4034 2525,4043 2535,4043 L 2666,4043 C 2676,4043 2684,4034 2684,4024 2684,4014 2676,4006 2666,4006 L 2535,4006 2535,4006 Z M 5061,6471 C 5003,6471 4955,6423 4955,6365 4955,6307 5003,6259 5061,6259 5119,6259 5166,6307 5166,6365 5166,6423 5119,6471 5061,6471 L 5061,6471 Z M 5061,6345 C 5050,6345 5041,6354 5041,6365 5041,6376 5050,6385 5061,6385 5072,6385 5081,6376 5081,6365 5081,6354 5072,6345 5061,6345 L 5061,6345 Z"/>
       </g>
      </g>
      <g class="Graphic">
       <g id="id11">
        <path fill="rgb(0,0,0)" stroke="none" d="M 6638,2584 C 6766,2584 6870,2480 6870,2352 6870,2224 6766,2120 6638,2120 6510,2120 6406,2224 6406,2352 6406,2480 6510,2584 6638,2584 L 6638,2584 Z"/>
        <path fill="rgb(0,0,0)" stroke="none" d="M 8662,2649 C 8663,2649 8665,2649 8667,2649 8748,2649 8824,2606 8865,2536 8907,2466 8907,2376 8866,2305 8826,2235 8750,2190 8669,2189 8589,2189 8512,2231 8470,2301 8428,2371 8426,2461 8466,2532 8506,2602 8581,2647 8662,2649 L 8662,2649 Z"/>
        <path fill="rgb(0,0,0)" stroke="none" d="M 9099,3332 C 9099,3333 9099,3332 9099,3331 9099,3324 9099,3325 9099,3328 9097,3274 9093,3220 9085,3167 9076,3109 9062,3053 9042,2998 9005,2894 8941,2795 8850,2731 8831,2718 8810,2707 8790,2696 8712,2653 8624,2653 8545,2695 8449,2746 8371,2828 8321,2924 8294,2975 8275,3029 8260,3084 8245,3140 8237,3197 8231,3254 8227,3299 8227,3345 8227,3391 8222,3391 8217,3390 8213,3389 8204,3387 8196,3384 8187,3380 8170,3373 8153,3364 8136,3354 8106,3336 8076,3316 8049,3293 8016,3266 7980,3252 7944,3252 L 7944,3252 C 7944,3252 7944,3252 7944,3252 7944,3252 7943,3252 7943,3252 L 7943,3252 C 7907,3252 7871,3266 7838,3293 7811,3316 7781,3336 7751,3354 7734,3364 7718,3373 7700,3380 7692,3384 7683,3387 7675,3389 7667,3390 7659,3392 7651,3391 7651,3391 7631,3378 7631,3378 7622,3372 7612,3370 7603,3371 7595,3372 7587,3375 7580,3380 7554,3401 7527,3419 7493,3424 7462,3428 7427,3420 7403,3399 7347,3349 7274,3353 7216,3399 7192,3419 7158,3428 7127,3424 7103,3421 7082,3411 7063,3398 7063,3396 7063,3395 7064,3394 L 7064,3394 C 7064,3394 7065,3381 7068,3358 7070,3335 7073,3302 7074,3262 7076,3222 7076,3175 7072,3123 7067,3072 7059,3017 7043,2962 7028,2907 7005,2852 6975,2803 6960,2779 6943,2756 6925,2736 6907,2716 6889,2698 6870,2682 6832,2652 6796,2632 6767,2620 6753,2614 6741,2610 6732,2608 6675,2592 6610,2595 6556,2605 6552,2606 6547,2606 6543,2608 6533,2610 6521,2614 6507,2620 6479,2632 6442,2652 6404,2682 6386,2698 6367,2716 6349,2736 6331,2756 6314,2779 6299,2803 6269,2852 6246,2907 6231,2962 6215,3017 6207,3072 6203,3123 6198,3175 6198,3222 6200,3262 6201,3302 6204,3335 6207,3358 6209,3381 6211,3394 6211,3394 L 6211,3395 C 6215,3430 6246,3456 6282,3454 6320,3453 6349,3420 6348,3382 6348,3382 6347,3370 6347,3349 6346,3328 6346,3298 6348,3262 6350,3227 6353,3185 6360,3142 6368,3100 6379,3055 6394,3014 6403,2991 6413,2969 6424,2948 L 6374,3367 C 6371,3388 6371,3410 6374,3431 6379,3475 6395,3515 6418,3549 L 6453,4301 C 6455,4342 6488,4376 6530,4378 6574,4380 6612,4345 6614,4301 L 6639,3733 6666,4301 C 6668,4342 6701,4376 6742,4378 6786,4380 6824,4345 6826,4301 L 6860,3546 C 6894,3495 6911,3433 6903,3367 L 6853,2954 C 6863,2972 6872,2993 6880,3014 6896,3055 6907,3100 6914,3142 6921,3185 6924,3227 6926,3262 6928,3298 6928,3328 6927,3349 6927,3370 6926,3382 6926,3382 6925,3418 6951,3449 6986,3454 6991,3455 6996,3455 7001,3454 7023,3476 7047,3494 7075,3507 7106,3522 7142,3528 7176,3526 L 7176,3656 7101,3999 C 7099,4007 7101,4015 7106,4021 7111,4028 7119,4031 7127,4031 L 7185,4031 7198,4320 C 7200,4344 7221,4364 7245,4364 7269,4364 7290,4345 7291,4320 L 7307,4031 7314,4031 7327,4320 C 7328,4344 7349,4364 7373,4364 7398,4364 7418,4345 7420,4320 L 7435,4031 7490,4031 C 7498,4031 7506,4028 7511,4021 7516,4015 7518,4007 7517,3999 L 7444,3663 7444,3526 C 7478,3528 7513,3522 7544,3508 7566,3498 7585,3484 7603,3469 7604,3469 7604,3470 7605,3470 7623,3482 7644,3487 7665,3488 7708,3490 7750,3477 7790,3461 L 7775,3726 C 7774,3759 7781,3787 7796,3814 L 7820,4311 C 7821,4339 7844,4361 7872,4361 7899,4361 7922,4339 7923,4311 L 7944,3922 7964,4311 C 7965,4339 7988,4361 8016,4361 8043,4361 8066,4339 8067,4311 L 8091,3814 C 8106,3787 8114,3759 8112,3726 L 8097,3461 C 8137,3477 8180,3490 8222,3488 8242,3487 8261,3483 8277,3473 8282,3474 8287,3475 8292,3476 8328,3477 8360,3449 8363,3413 8365,3396 8366,3379 8368,3362 8371,3335 8374,3309 8378,3282 8387,3227 8402,3172 8422,3120 8426,3107 8432,3094 8438,3081 L 8440,3243 8309,3832 C 8307,3846 8310,3860 8319,3870 8328,3881 8341,3887 8354,3887 L 8456,3887 8476,4302 C 8479,4344 8514,4378 8556,4378 8597,4378 8633,4345 8635,4303 8635,4303 8635,4303 8635,4302 L 8657,3887 8676,3887 8696,4302 C 8698,4344 8733,4378 8775,4378 8816,4378 8852,4345 8855,4303 8855,4303 8855,4303 8855,4302 L 8876,3887 8978,3887 C 8992,3887 9005,3881 9014,3870 9022,3860 9026,3846 9023,3832 L 8894,3241 8896,3081 C 8918,3134 8933,3199 8944,3256 8953,3304 8958,3353 8962,3403 8962,3404 8962,3405 8962,3406 8965,3442 8997,3470 9033,3469 9069,3467 9098,3437 9099,3401 9099,3378 9099,3355 9099,3332 L 9099,3332 Z"/>
        <path fill="rgb(0,0,0)" stroke="none" d="M 7943,3241 C 7943,3241 7943,3241 7944,3241 7944,3241 7944,3241 7944,3241 7985,3241 8025,3224 8053,3194 8082,3164 8096,3123 8094,3082 8092,3042 8072,3003 8041,2977 8014,2954 7979,2942 7944,2942 L 7944,2942 C 7944,2942 7944,2942 7944,2942 7944,2942 7943,2942 7943,2942 L 7943,2942 C 7908,2942 7873,2954 7846,2977 7815,3003 7796,3042 7793,3082 7791,3123 7806,3164 7834,3194 7862,3224 7902,3241 7943,3241 L 7943,3241 Z"/>
        <path fill="rgb(0,0,0)" stroke="none" d="M 7262,3339 C 7278,3345 7294,3348 7310,3348 7355,3348 7397,3325 7422,3288 7447,3251 7451,3202 7433,3160 7416,3120 7378,3090 7335,3082 7290,3074 7244,3089 7213,3121 7182,3154 7169,3201 7179,3245 7190,3288 7221,3324 7262,3339 L 7262,3339 Z"/>
       </g>
      </g>
      <g class="Graphic">
       <g id="id12">
        <path fill="rgb(0,0,0)" stroke="none" d="M 12071,4367 C 11822,4197 11408,4212 11125,4215 10878,4218 10540,4233 10368,4433 10160,4610 10147,4941 10192,5195 10247,5511 10496,5605 10788,5522 10788,5522 10789,5522 10789,5522 10819,5516 10849,5508 10878,5498 10875,5504 10874,5509 10879,5515 10970,5634 11084,5739 11239,5755 11436,5776 11539,5642 11661,5510 11666,5505 11668,5500 11669,5495 11708,5503 11748,5507 11787,5504 11791,5506 11795,5508 11800,5508 12348,5520 12477,4644 12071,4367 L 12071,4367 Z M 11244,5693 C 11106,5679 11002,5587 10910,5491 10909,5490 10907,5490 10905,5489 10950,5472 10993,5449 11033,5420 11062,5398 11089,5373 11112,5344 11154,5290 11185,5158 11269,5147 11355,5179 11374,5282 11428,5349 11468,5399 11519,5438 11578,5465 11587,5469 11597,5473 11607,5476 11505,5587 11412,5710 11244,5693 L 11244,5693 Z M 11833,5348 C 11619,5375 11558,5247 11421,5116 11375,5072 11325,5038 11275,5038 11241,5020 11204,5034 11173,5056 11110,5075 11079,5108 11041,5165 11009,5214 11000,5281 10963,5327 10891,5416 10734,5455 10626,5439 10294,5388 10274,5037 10336,4779 10367,4653 10429,4544 10516,4464 10520,4466 10525,4467 10530,4464 10600,4426 10672,4394 10745,4368 10889,4386 11022,4357 11160,4336 11376,4357 11619,4341 11823,4399 12061,4468 12187,4662 12197,4888 12197,4890 12196,4891 12196,4892 12183,5112 12071,5318 11833,5348 L 11833,5348 Z"/>
        <path fill="rgb(0,0,0)" stroke="none" d="M 10718,4811 C 10670,4901 10626,4995 10582,5088 10576,5098 10592,5108 10598,5097 10646,5006 10695,4916 10739,4823 10746,4809 10725,4796 10718,4811 L 10718,4811 Z"/>
        <path fill="rgb(0,0,0)" stroke="none" d="M 11069,4497 C 10933,4710 10816,4941 10699,5165 10694,5175 10708,5183 10714,5174 10845,4958 10982,4739 11095,4512 11104,4495 11080,4481 11069,4497 L 11069,4497 Z"/>
        <path fill="rgb(0,0,0)" stroke="none" d="M 11446,4573 C 11411,4626 11381,4683 11352,4739 11345,4753 11364,4765 11373,4751 11407,4698 11440,4643 11469,4586 11477,4571 11455,4558 11446,4573 L 11446,4573 Z"/>
        <path fill="rgb(0,0,0)" stroke="none" d="M 11872,4580 C 11742,4731 11639,4917 11554,5097 11545,5114 11570,5130 11581,5112 11683,4940 11797,4774 11898,4600 11908,4584 11884,4565 11872,4580 L 11872,4580 Z"/>
        <path fill="rgb(0,0,0)" stroke="none" d="M 11959,4911 C 11932,4960 11909,5011 11885,5062 11877,5078 11901,5093 11910,5076 11936,5027 11963,4978 11986,4926 11994,4909 11969,4893 11959,4911 L 11959,4911 Z"/>
        <path fill="rgb(0,0,0)" stroke="none" d="M 12818,4120 C 12818,4051 12817,3982 12816,3914 12816,3907 12814,3903 12812,3898 12823,3886 12826,3867 12811,3854 12736,3795 12616,3787 12526,3813 12472,3829 12427,3882 12440,3934 12438,3936 12435,3938 12433,3940 12409,3968 12430,4008 12461,4009 12463,4115 12465,4220 12467,4326 12460,4336 12459,4350 12467,4358 12472,4627 12476,4896 12478,5164 12480,5522 12601,6205 12269,6442 12203,6443 12148,6456 12080,6429 12031,6410 11990,6378 11958,6339 11988,6319 12015,6294 12038,6263 12079,6207 12148,6055 12063,6008 12009,5978 11869,6023 11809,6030 11702,6042 11593,6049 11488,6072 11469,6076 11463,6093 11465,6109 11458,6111 11451,6117 11449,6124 11448,6128 11448,6131 11447,6135 11437,6142 11432,6158 11444,6170 11447,6173 11450,6175 11453,6178 11486,6261 11628,6348 11688,6369 11701,6374 11713,6376 11726,6379 11781,6650 12078,6852 12347,6786 12352,6792 12358,6796 12366,6793 12707,6651 12770,6311 12789,5973 12823,5388 12826,4800 12820,4214 12830,4185 12830,4151 12818,4120 L 12818,4120 Z M 12412,6712 C 12266,6735 12136,6748 12001,6670 11889,6605 11817,6503 11768,6386 11820,6390 11872,6382 11919,6361 11951,6412 11997,6453 12055,6480 12123,6511 12234,6533 12298,6484 12299,6483 12299,6482 12300,6481 12545,6372 12547,6082 12547,5833 12549,5350 12543,4867 12533,4385 12609,4403 12695,4394 12752,4344 12752,4661 12750,4978 12742,5295 12731,5756 12814,6404 12412,6712 L 12412,6712 Z"/>
       </g>
      </g>
      <g class="Graphic">
       <g id="id13">
        <path fill="rgb(255,222,85)" stroke="none" d="M 3599,8802 L 3529,8802 3529,8388 3669,8388 3669,8802 3599,8802 Z"/>
        <path fill="rgb(255,222,85)" stroke="none" d="M 4465,8746 L 4515,8796 4221,9089 4123,8990 4416,8697 4465,8746 Z"/>
        <path fill="rgb(255,222,85)" stroke="none" d="M 2581,9682 L 2374,9682 2374,9543 2789,9543 2789,9682 2581,9682 Z"/>
        <path fill="rgb(255,222,85)" stroke="none" d="M 4617,9682 L 4409,9682 4409,9543 4824,9543 4824,9682 4617,9682 Z"/>
        <path fill="rgb(255,222,85)" stroke="none" d="M 3026,9040 L 2977,9089 2683,8796 2782,8697 3075,8990 3026,9040 Z"/>
        <path fill="rgb(255,222,85)" stroke="none" d="M 3599,8947 C 3231,8947 2934,9245 2934,9613 2934,9717 2958,9816 3000,9904 3019,9943 3042,9979 3068,10014 3124,10012 3179,9995 3228,9963 3243,9953 3258,9942 3272,9929 3280,9921 3289,9914 3299,9908 3370,9859 3466,9859 3537,9908 3546,9914 3555,9921 3564,9929 3685,10042 3875,10042 3996,9929 4000,9926 4003,9922 4007,9919 4012,9915 4017,9911 4023,9908 4071,9875 4130,9864 4185,9876 4192,9877 4200,9879 4208,9882 4222,9850 4233,9818 4242,9784 4257,9730 4264,9672 4264,9613 4264,9245 3967,8947 3599,8947 L 3599,8947 Z"/>
        <path fill="rgb(87,195,255)" stroke="none" d="M 5085,9933 C 5066,9954 5033,9955 5012,9936 4930,9859 4802,9859 4721,9936 4679,9975 4629,10000 4577,10013 4577,10013 4577,10013 4577,10013 4477,10036 4368,10010 4288,9936 4280,9928 4271,9921 4261,9915 4245,9903 4227,9895 4208,9889 4200,9886 4192,9884 4185,9883 4130,9872 4071,9882 4023,9915 4017,9918 4012,9922 4007,9926 4003,9929 4000,9933 3996,9936 3875,10049 3685,10049 3564,9936 3555,9928 3546,9921 3537,9915 3466,9866 3370,9866 3299,9915 3289,9921 3280,9928 3272,9936 3258,9949 3243,9960 3228,9970 3179,10002 3124,10019 3068,10021 2986,10024 2903,9996 2840,9936 2758,9859 2630,9859 2548,9936 2546,9937 2545,9939 2544,9940 2484,9994 2408,10021 2332,10021 2254,10021 2176,9993 2115,9936 2094,9916 2093,9884 2113,9863 2132,9842 2165,9841 2186,9860 2268,9937 2396,9937 2477,9860 2478,9860 2478,9860 2478,9860 2578,9767 2725,9750 2841,9812 2866,9825 2889,9841 2910,9860 2936,9885 2968,9902 3000,9911 3004,9912 3008,9913 3012,9913 3015,9914 3017,9914 3020,9915 3044,9919 3068,9919 3092,9915 3117,9911 3142,9902 3165,9888 3178,9881 3190,9871 3202,9860 3323,9747 3513,9747 3634,9860 3666,9890 3704,9908 3744,9915 3768,9919 3792,9919 3816,9915 3856,9908 3894,9890 3926,9860 3971,9818 4026,9791 4084,9781 4112,9776 4141,9774 4169,9777 4194,9779 4218,9784 4242,9791 4284,9805 4324,9828 4359,9860 4360,9862 4361,9863 4362,9864 4444,9937 4569,9936 4650,9860 4684,9829 4723,9806 4764,9792 4872,9756 4995,9778 5083,9860 5103,9880 5105,9913 5085,9933 L 5085,9933 Z"/>
        <path fill="rgb(87,195,255)" stroke="none" d="M 5085,10323 C 5066,10344 5033,10345 5012,10325 4930,10249 4802,10249 4721,10325 4679,10364 4629,10390 4577,10402 4577,10402 4577,10402 4577,10402 4477,10425 4368,10400 4288,10325 4280,10317 4271,10310 4261,10304 4238,10288 4212,10277 4185,10272 4130,10261 4071,10272 4023,10304 4014,10310 4005,10317 3996,10325 3875,10439 3685,10439 3564,10325 3555,10317 3547,10310 3537,10304 3466,10256 3370,10256 3299,10304 3289,10310 3280,10317 3272,10325 3151,10439 2961,10439 2840,10325 2758,10249 2630,10249 2548,10325 2546,10326 2545,10328 2544,10329 2484,10383 2408,10410 2332,10410 2254,10410 2176,10382 2115,10325 2095,10306 2093,10273 2113,10252 2132,10231 2165,10230 2186,10250 2268,10326 2396,10326 2477,10250 2478,10250 2478,10249 2478,10249 2578,10156 2725,10140 2841,10201 2866,10214 2889,10230 2910,10250 2940,10277 2975,10295 3012,10303 3015,10303 3017,10304 3020,10304 3044,10308 3068,10308 3092,10304 3132,10297 3170,10279 3202,10250 3323,10136 3513,10136 3634,10250 3666,10279 3704,10297 3744,10304 3768,10308 3792,10308 3816,10304 3856,10297 3894,10279 3926,10250 3993,10186 4083,10158 4169,10166 4238,10172 4305,10200 4358,10250 4360,10251 4361,10252 4362,10253 4444,10326 4569,10325 4650,10250 4684,10218 4723,10195 4764,10181 4872,10145 4995,10168 5083,10250 5103,10269 5105,10302 5085,10323 L 5085,10323 Z"/>
       </g>
      </g>
      <g class="Graphic">
       <g id="id14">
        <path fill="rgb(255,225,178)" stroke="none" d="M 11066,9153 C 10996,9136 10950,9173 10950,9247 10950,9344 11044,9583 11144,9434 11243,9285 11066,9153 11066,9153 L 11066,9153 Z"/>
        <path fill="rgb(255,225,178)" stroke="none" d="M 12320,9153 C 12396,9136 12447,9173 12447,9247 12447,9344 12344,9583 12236,9434 12127,9285 12320,9153 12320,9153 L 12320,9153 Z"/>
        <path fill="rgb(255,215,163)" stroke="none" d="M 11185,9994 C 11290,9927 11278,9726 11278,9680 L 12120,9680 C 12120,9726 12107,9927 12211,9994 L 11699,10568 11185,9994 11185,9994 Z"/>
        <path fill="rgb(253,200,142)" stroke="none" d="M 12026,10194 L 12211,9994 C 12107,9927 12120,9726 12120,9680 L 11278,9680 C 11339,9853 11738,10151 12026,10194 L 12026,10194 Z"/>
        <path fill="rgb(255,225,178)" stroke="none" d="M 12354,9072 C 12354,9446 12138,9913 11699,9913 11260,9913 11044,9446 11044,9072 11044,8697 11337,8557 11699,8557 12061,8557 12354,8697 12354,9072 L 12354,9072 Z"/>
        <path fill="rgb(167,121,94)" stroke="none" d="M 12338,8935 C 12301,8887 12260,8838 12260,8838 L 12260,8885 C 12272,9308 12120,9493 12120,9493 L 11926,9514 C 11775,9531 11623,9531 11472,9514 L 11278,9493 C 11278,9493 11126,9308 11138,8885 L 11138,8838 C 11138,8838 11097,8887 11060,8935 11050,8977 11044,9022 11044,9072 11044,9447 11260,9986 11699,9986 12138,9986 12354,9447 12354,9072 12354,9022 12348,8977 12338,8935 L 12338,8935 Z M 11559,9604 L 11839,9604 C 11878,9604 11911,9627 11925,9660 11873,9683 11794,9697 11704,9697 11610,9697 11526,9681 11475,9656 11490,9625 11522,9604 11559,9604 L 11559,9604 Z"/>
        <path fill="rgb(84,61,56)" stroke="none" d="M 11185,8948 C 11165,9004 11138,9259 11138,9259 L 11044,9207 11018,8864 11185,8948 11185,8948 Z"/>
        <path fill="rgb(84,61,56)" stroke="none" d="M 12213,8948 C 12233,9004 12260,9259 12260,9259 L 12354,9207 12380,8864 12213,8948 12213,8948 Z"/>
        <path fill="rgb(228,235,240)" stroke="none" d="M 12915,10755 L 12915,10538 C 12915,10332 12755,10113 12559,10050 L 12266,9956 C 12109,10077 11884,10241 11699,10241 11514,10241 11289,10077 11132,9956 L 10839,10050 C 10643,10113 10483,10332 10483,10538 L 10483,10755 C 10483,10833 10546,10895 10623,10895 L 12775,10895 C 12852,10895 12915,10833 12915,10755 Z"/>
        <path fill="rgb(84,84,101)" stroke="none" d="M 11746,10428 L 11652,10428 C 11627,10428 11605,10407 11605,10381 L 11605,10288 C 11605,10262 11627,10241 11652,10241 L 11746,10241 C 11771,10241 11793,10262 11793,10288 L 11793,10381 C 11793,10407 11771,10428 11746,10428 Z"/>
        <path fill="rgb(208,215,220)" stroke="none" d="M 11746,10662 C 11746,10670 11744,10678 11739,10685 11735,10692 11730,10698 11722,10702 11715,10706 11708,10708 11699,10708 11690,10708 11683,10706 11676,10702 11668,10698 11663,10692 11658,10685 11654,10678 11652,10670 11652,10662 11652,10653 11654,10646 11658,10638 11663,10631 11668,10625 11676,10621 11683,10617 11690,10615 11699,10615 11708,10615 11715,10617 11722,10621 11730,10625 11735,10631 11739,10638 11744,10646 11746,10653 11746,10662 L 11746,10662 Z"/>
        <path fill="rgb(208,215,220)" stroke="none" d="M 11699,10241 L 11504,10436 C 11484,10456 11450,10454 11433,10430 L 11091,9960 11200,9851 C 11218,9834 11246,9833 11264,9850 L 11699,10241 11699,10241 Z"/>
        <path fill="rgb(208,215,220)" stroke="none" d="M 11699,10241 L 11894,10436 C 11914,10456 11948,10454 11965,10430 L 12307,9960 12198,9851 C 12180,9834 12152,9833 12134,9850 L 11699,10241 11699,10241 Z"/>
        <path fill="rgb(84,84,101)" stroke="none" d="M 11763,10402 L 11699,10428 11635,10402 11605,10895 11699,10895 11793,10895 11763,10402 Z"/>
        <path fill="rgb(57,57,80)" stroke="none" d="M 12307,9960 L 12775,10100 12728,10241 12400,10147 12307,9960 Z"/>
        <path fill="rgb(255,210,103)" stroke="none" d="M 12717,10083 L 12672,10070 12625,10211 12670,10224 12717,10083 Z"/>
        <path fill="rgb(255,210,103)" stroke="none" d="M 12638,10059 L 12593,10046 12545,10189 12590,10201 12638,10059 Z"/>
        <path fill="rgb(57,57,80)" stroke="none" d="M 11091,9960 L 10623,10100 10670,10241 10997,10147 11091,9960 Z"/>
        <path fill="rgb(255,210,103)" stroke="none" d="M 10681,10083 L 10725,10070 10773,10211 10728,10224 10681,10083 Z"/>
        <path fill="rgb(255,210,103)" stroke="none" d="M 10760,10059 L 10805,10046 10852,10189 10807,10201 10760,10059 Z"/>
        <path fill="rgb(228,235,240)" stroke="none" d="M 12634,8510 C 12634,8769 12216,8838 11699,8838 11182,8838 10764,8769 10764,8510 10764,8252 11182,7903 11699,7903 12216,7903 12634,8252 12634,8510 L 12634,8510 Z"/>
        <path fill="rgb(41,57,74)" stroke="none" d="M 12400,8838 C 12400,8872 12371,8902 12306,8931 12242,8961 12162,8983 12050,9000 11938,9017 11828,9025 11699,9025 11570,9025 11460,9017 11348,9000 11236,8983 11156,8961 11092,8931 11027,8902 10998,8872 10998,8838 10998,8803 11027,8774 11092,8744 11156,8714 11236,8693 11348,8676 11460,8659 11570,8651 11699,8651 11828,8651 11938,8659 12050,8676 12162,8693 12242,8714 12306,8744 12371,8774 12400,8803 12400,8838 L 12400,8838 Z"/>
        <path fill="rgb(71,79,101)" stroke="none" d="M 10998,8673 L 10998,8838 C 11151,8811 11408,8793 11699,8793 11990,8793 12247,8811 12400,8838 L 12400,8673 C 12247,8598 11990,8549 11699,8549 11408,8549 11151,8598 10998,8673 L 10998,8673 Z"/>
        <path fill="rgb(255,210,103)" stroke="none" d="M 11699,8725 C 11425,8725 11177,8750 10998,8790 L 10998,8838 C 11151,8811 11408,8793 11699,8793 11990,8793 12247,8811 12400,8838 L 12400,8790 C 12221,8750 11973,8725 11699,8725 L 11699,8725 Z"/>
        <path fill="rgb(84,61,56)" stroke="none" d="M 11714,9562 C 11714,9500 11654,9486 11614,9501 11542,9529 11462,9605 11395,9558 11395,9558 11418,9657 11458,9657 11537,9657 11714,9667 11714,9562 L 11714,9562 Z"/>
        <path fill="rgb(84,61,56)" stroke="none" d="M 11695,9562 C 11695,9500 11755,9486 11794,9501 11866,9529 11946,9605 12013,9558 12013,9558 11990,9657 11950,9657 11872,9657 11695,9667 11695,9562 L 11695,9562 Z"/>
        <path fill="rgb(71,79,101)" stroke="none" d="M 11695,8412 C 11604,8412 11531,8339 11531,8248 L 11578,8248 C 11578,8313 11630,8365 11695,8365 11759,8365 11812,8313 11812,8248 L 11858,8248 C 11858,8339 11785,8412 11695,8412 L 11695,8412 Z"/>
        <path fill="rgb(71,79,101)" stroke="none" d="M 11695,8431 L 11671,8431 11671,8149 11718,8149 11718,8431 11695,8431 Z"/>
        <path fill="rgb(71,79,101)" stroke="none" d="M 11695,8163 C 11657,8163 11626,8132 11626,8093 11626,8055 11657,8024 11695,8024 11733,8024 11764,8055 11764,8093 11764,8132 11733,8163 11695,8163 L 11695,8163 Z M 11695,8071 C 11682,8071 11672,8081 11672,8093 11672,8106 11682,8116 11695,8116 11707,8116 11717,8106 11717,8093 11717,8081 11707,8071 11695,8071 L 11695,8071 Z"/>
        <path fill="rgb(71,79,101)" stroke="none" d="M 11695,8233 L 11618,8233 11618,8186 11771,8186 11771,8233 11695,8233 Z"/>
       </g>
      </g>
      <g class="Graphic">
       <g id="id15">
        <path fill="rgb(155,201,204)" stroke="none" d="M 7380,11148 C 7514,11134 7620,11020 7620,10881 L 7562,10881 C 7562,10987 7484,11075 7382,11090 7380,10989 7353,10937 7326,10887 7305,10846 7285,10807 7279,10741 7411,10724 7513,10611 7513,10475 L 7456,10475 C 7456,10580 7378,10667 7277,10683 7280,10602 7303,10559 7326,10514 7354,10462 7382,10408 7382,10301 L 7324,10301 C 7324,10394 7300,10439 7275,10488 7249,10537 7223,10588 7220,10684 7115,10671 7034,10582 7034,10475 L 6977,10475 C 6977,10615 7084,10730 7221,10742 7227,10822 7252,10868 7275,10913 7300,10960 7323,11004 7324,11090 7221,11077 7141,10988 7141,10881 L 7083,10881 C 7083,11019 7188,11133 7322,11148 7315,11210 7296,11247 7275,11286 7248,11338 7220,11391 7220,11497 7115,11485 7034,11396 7034,11288 L 6977,11288 C 6977,11429 7085,11544 7223,11556 7231,11626 7253,11670 7275,11711 7300,11760 7324,11805 7324,11898 7324,11900 7324,11902 7324,11904 7221,11890 7141,11802 7141,11695 L 7083,11695 C 7083,11832 7187,11946 7320,11961 7312,12014 7294,12048 7275,12084 7248,12136 7219,12190 7219,12297 L 7277,12297 C 7277,12204 7301,12159 7326,12111 7347,12070 7369,12028 7378,11962 7514,11949 7620,11834 7620,11695 L 7562,11695 C 7562,11801 7484,11889 7382,11903 7382,11902 7382,11900 7382,11898 7382,11791 7354,11737 7326,11685 7307,11647 7288,11612 7280,11554 7412,11537 7513,11424 7513,11288 L 7456,11288 C 7456,11393 7378,11481 7277,11496 7277,11405 7301,11360 7326,11312 7349,11269 7373,11224 7380,11148 L 7380,11148 Z"/>
        <path fill="rgb(131,182,183)" stroke="none" d="M 7983,11903 C 7983,11902 7983,11900 7983,11898 7983,11791 7955,11737 7928,11685 7908,11647 7889,11612 7882,11554 8013,11537 8115,11424 8115,11288 L 8057,11288 C 8057,11393 7980,11481 7879,11496 7879,11405 7903,11360 7928,11312 7951,11269 7974,11224 7981,11148 8116,11134 8221,11020 8221,10881 L 8164,10881 C 8164,10987 8085,11075 7983,11090 7982,10989 7954,10937 7928,10887 7903,10839 7879,10793 7879,10700 L 7821,10700 C 7821,10807 7849,10861 7877,10913 7901,10960 7924,11004 7926,11090 7822,11077 7742,10988 7742,10881 L 7685,10881 C 7685,11019 7789,11133 7923,11148 7917,11210 7897,11247 7877,11286 7849,11338 7821,11391 7821,11497 7717,11485 7636,11396 7636,11288 L 7578,11288 C 7578,11429 7687,11544 7824,11556 7832,11626 7855,11670 7877,11711 7902,11760 7926,11805 7926,11898 7926,11900 7926,11902 7926,11904 7822,11890 7742,11802 7742,11695 L 7685,11695 C 7685,11832 7788,11946 7921,11961 7913,12014 7895,12048 7877,12084 7849,12136 7821,12190 7821,12297 L 7879,12297 C 7879,12204 7903,12159 7928,12111 7949,12070 7971,12028 7980,11962 8115,11949 8221,11834 8221,11695 L 8164,11695 C 8164,11801 8085,11889 7983,11903 L 7983,11903 Z"/>
       </g>
      </g>
      <g class="Graphic">
       <g id="id16">
        <path fill="rgb(234,133,24)" stroke="none" d="M 6333,11436 L 6411,11514 6339,11641 C 6307,11698 6230,11708 6185,11662 L 6185,11662 C 6139,11617 6149,11540 6206,11508 L 6333,11436 6333,11436 Z"/>
        <path fill="rgb(234,133,24)" stroke="none" d="M 6511,11211 L 6540,11148 C 6540,11148 6336,11038 6149,11177 Z"/>
        <path fill="rgb(234,133,24)" stroke="none" d="M 6134,11185 L 6012,11185 C 5978,11185 5949,11213 5949,11248 L 5949,11292 Z"/>
        <path fill="rgb(234,133,24)" stroke="none" d="M 6134,11544 L 6012,11544 C 5978,11544 5949,11516 5949,11481 L 5949,11438 Z"/>
        <path fill="rgb(249,153,58)" stroke="none" d="M 6698,11365 C 6643,11451 6568,11513 6484,11549 6480,11551 6475,11553 6471,11554 6467,11556 6462,11558 6458,11559 6445,11564 6432,11568 6418,11572 6413,11573 6407,11574 6402,11576 6398,11576 6395,11577 6392,11578 6380,11580 6368,11582 6356,11584 6338,11586 6320,11587 6302,11588 6299,11588 6295,11588 6292,11588 6287,11588 6282,11588 6276,11587 6229,11586 6181,11577 6136,11561 6132,11560 6128,11558 6124,11557 6119,11555 6115,11553 6110,11551 6080,11539 6051,11523 6024,11504 6019,11501 6014,11498 6009,11494 6005,11491 6002,11488 5998,11485 5982,11472 5966,11458 5952,11443 5948,11439 5944,11435 5940,11430 5935,11425 5930,11419 5926,11414 5913,11398 5901,11382 5891,11365 5901,11347 5913,11331 5926,11315 5930,11310 5935,11304 5940,11299 5944,11294 5948,11290 5952,11286 5966,11271 5982,11257 5998,11244 6002,11241 6005,11238 6009,11235 6014,11232 6019,11228 6024,11225 6051,11206 6080,11190 6110,11178 6115,11176 6119,11174 6124,11172 6128,11171 6132,11169 6136,11168 6181,11152 6229,11143 6276,11142 6282,11142 6287,11141 6292,11141 L 6294,11141 C 6297,11141 6300,11141 6302,11141 6320,11142 6338,11143 6356,11145 6368,11147 6380,11149 6392,11151 6395,11152 6398,11153 6402,11153 6407,11155 6413,11156 6418,11157 6432,11161 6445,11165 6458,11170 6462,11172 6467,11173 6471,11175 6475,11177 6480,11178 6484,11180 6554,11210 6619,11259 6670,11324 L 6646,11348 C 6638,11356 6638,11369 6646,11377 L 6650,11381 6685,11346 C 6690,11352 6694,11358 6698,11365 L 6698,11365 Z"/>
        <path fill="rgb(249,153,58)" stroke="none" d="M 5715,11224 C 5710,11223 5705,11223 5700,11222 L 5700,11507 C 5705,11506 5710,11506 5715,11505 5801,11494 5883,11447 5934,11365 5883,11282 5801,11235 5715,11224 L 5715,11224 Z"/>
        <path fill="rgb(255,255,255)" stroke="none" d="M 6614,11365 C 6614,11375 6612,11384 6606,11394 6601,11403 6594,11410 6585,11415 6576,11421 6566,11423 6556,11423 6545,11423 6536,11421 6527,11415 6517,11410 6511,11403 6505,11394 6500,11384 6497,11375 6497,11365 6497,11354 6500,11345 6505,11335 6511,11326 6517,11319 6527,11314 6536,11309 6545,11306 6556,11306 6566,11306 6576,11309 6585,11314 6594,11319 6601,11326 6606,11335 6612,11345 6614,11354 6614,11365 L 6614,11365 Z"/>
        <path fill="rgb(77,77,77)" stroke="none" d="M 6591,11365 C 6591,11371 6590,11377 6587,11382 6583,11388 6579,11392 6574,11396 6568,11399 6562,11400 6556,11400 6549,11400 6544,11399 6538,11396 6532,11392 6528,11388 6525,11382 6521,11377 6520,11371 6520,11365 6520,11358 6521,11352 6525,11347 6528,11341 6532,11337 6538,11334 6544,11330 6549,11329 6556,11329 6562,11329 6568,11330 6574,11334 6579,11337 6583,11341 6587,11347 6590,11352 6591,11358 6591,11365 L 6591,11365 Z"/>
        <path fill="rgb(230,230,230)" stroke="none" d="M 6471,11175 L 6471,11554 C 6448,11563 6425,11570 6402,11576 L 6402,11153 C 6425,11159 6448,11166 6471,11175 L 6471,11175 Z"/>
        <path fill="rgb(230,230,230)" stroke="none" d="M 6009,11235 L 6009,11494 C 5985,11476 5961,11454 5940,11430 L 5940,11299 C 5961,11275 5985,11254 6009,11235 L 6009,11235 Z"/>
        <path fill="rgb(230,230,230)" stroke="none" d="M 6292,11141 L 6292,11588 C 6235,11588 6178,11577 6124,11557 L 6124,11172 C 6178,11152 6235,11142 6292,11141 L 6292,11141 Z"/>
        <path fill="rgb(102,100,100)" stroke="none" d="M 6484,11180 L 6484,11549 C 6480,11551 6475,11553 6471,11554 6467,11556 6462,11558 6458,11559 L 6458,11170 C 6462,11172 6467,11173 6471,11175 6475,11177 6480,11178 6484,11180 L 6484,11180 Z"/>
        <path fill="rgb(102,100,100)" stroke="none" d="M 6418,11157 L 6418,11572 C 6413,11573 6407,11574 6402,11576 6398,11576 6395,11577 6392,11578 L 6392,11151 C 6395,11152 6398,11153 6402,11153 6407,11155 6413,11156 6418,11157 L 6418,11157 Z"/>
        <path fill="rgb(102,100,100)" stroke="none" d="M 6302,11141 L 6302,11588 C 6299,11588 6295,11588 6292,11588 6287,11588 6282,11588 6276,11587 L 6276,11142 C 6282,11142 6287,11141 6292,11141 L 6294,11141 C 6297,11141 6300,11141 6302,11141 L 6302,11141 Z"/>
        <path fill="rgb(102,100,100)" stroke="none" d="M 6136,11168 L 6136,11561 C 6132,11560 6128,11558 6124,11557 6119,11555 6115,11553 6110,11551 L 6110,11178 C 6115,11176 6119,11174 6124,11172 6128,11171 6132,11169 6136,11168 L 6136,11168 Z"/>
        <path fill="rgb(102,100,100)" stroke="none" d="M 6024,11225 L 6024,11504 C 6019,11501 6014,11498 6009,11494 6005,11491 6002,11488 5998,11485 L 5998,11244 C 6002,11241 6005,11238 6009,11235 6014,11232 6019,11228 6024,11225 L 6024,11225 Z"/>
        <path fill="rgb(102,100,100)" stroke="none" d="M 5952,11286 L 5952,11443 C 5948,11439 5944,11435 5940,11430 5935,11425 5930,11419 5926,11414 L 5926,11315 C 5930,11310 5935,11304 5940,11299 5944,11294 5948,11290 5952,11286 L 5952,11286 Z"/>
        <path fill="rgb(249,153,58)" stroke="none" d="M 6373,11375 L 6373,11471 6250,11505 C 6196,11521 6142,11480 6142,11423 L 6142,11423 C 6142,11367 6196,11326 6250,11341 L 6373,11375 6373,11375 Z"/>
       </g>
      </g>
      <g class="Graphic">
       <g id="id17">
        <path fill="rgb(251,212,144)" stroke="none" d="M 6807,12137 L 6909,12343 C 6937,12400 6992,12439 7055,12449 L 7282,12482 C 7290,12483 7293,12492 7287,12497 L 7123,12658 C 7077,12702 7056,12766 7067,12829 L 7106,13055 C 7107,13063 7099,13069 7092,13065 L 6889,12958 C 6833,12929 6765,12929 6709,12958 L 6506,13065 C 6499,13069 6491,13063 6492,13056 L 6531,12829 C 6542,12766 6521,12702 6475,12658 L 6311,12498 C 6305,12492 6308,12483 6316,12482 L 6543,12449 C 6606,12440 6661,12400 6689,12343 L 6791,12137 C 6794,12130 6804,12130 6807,12137 L 6807,12137 Z"/>
        <path fill="rgb(251,212,144)" stroke="none" d="M 6890,12629 C 6890,12646 6886,12660 6878,12675 6869,12689 6859,12699 6844,12708 6830,12716 6816,12720 6799,12720 6782,12720 6768,12716 6754,12708 6739,12699 6729,12689 6720,12675 6712,12660 6708,12646 6708,12629 6708,12613 6712,12598 6720,12584 6729,12569 6739,12559 6754,12551 6768,12542 6782,12538 6799,12538 6816,12538 6830,12542 6844,12551 6859,12559 6869,12569 6878,12584 6886,12598 6890,12613 6890,12629 L 6890,12629 Z"/>
        <path fill="none" stroke="rgb(244,230,206)" stroke-width="36" stroke-linejoin="miter" d="M 6890,12629 C 6890,12646 6886,12660 6878,12675 6869,12689 6859,12699 6844,12708 6830,12716 6816,12720 6799,12720 6782,12720 6768,12716 6754,12708 6739,12699 6729,12689 6720,12675 6712,12660 6708,12646 6708,12629 6708,12613 6712,12598 6720,12584 6729,12569 6739,12559 6754,12551 6768,12542 6782,12538 6799,12538 6816,12538 6830,12542 6844,12551 6859,12559 6869,12569 6878,12584 6886,12598 6890,12613 6890,12629 L 6890,12629 Z"/>
        <path fill="rgb(244,230,206)" stroke="none" d="M 6817,12466 C 6817,12469 6816,12472 6815,12475 6813,12478 6811,12480 6808,12482 6805,12483 6802,12484 6799,12484 6796,12484 6793,12483 6790,12482 6787,12480 6785,12478 6783,12475 6782,12472 6781,12469 6781,12466 6781,12463 6782,12460 6783,12457 6785,12454 6787,12452 6790,12450 6793,12449 6796,12448 6799,12448 6802,12448 6805,12449 6808,12450 6811,12452 6813,12454 6815,12457 6816,12460 6817,12463 6817,12466 L 6817,12466 Z"/>
        <path fill="rgb(244,230,206)" stroke="none" d="M 6817,12393 C 6817,12397 6816,12400 6815,12402 6813,12405 6811,12407 6808,12409 6805,12411 6802,12412 6799,12412 6796,12412 6793,12411 6790,12409 6787,12407 6785,12405 6783,12402 6782,12400 6781,12397 6781,12393 6781,12390 6782,12387 6783,12384 6785,12381 6787,12379 6790,12378 6793,12376 6796,12375 6799,12375 6802,12375 6805,12376 6808,12378 6811,12379 6813,12381 6815,12384 6816,12387 6817,12390 6817,12393 L 6817,12393 Z"/>
        <path fill="rgb(244,230,206)" stroke="none" d="M 6817,12321 C 6817,12324 6816,12327 6815,12330 6813,12333 6811,12335 6808,12337 6805,12338 6802,12339 6799,12339 6796,12339 6793,12338 6790,12337 6787,12335 6785,12333 6783,12330 6782,12327 6781,12324 6781,12321 6781,12317 6782,12315 6783,12312 6785,12309 6787,12307 6790,12305 6793,12303 6796,12303 6799,12303 6802,12303 6805,12303 6808,12305 6811,12307 6813,12309 6815,12312 6816,12315 6817,12317 6817,12321 L 6817,12321 Z"/>
        <path fill="rgb(244,230,206)" stroke="none" d="M 6817,12248 C 6817,12252 6816,12254 6815,12257 6813,12260 6811,12262 6808,12264 6805,12266 6802,12266 6799,12266 6796,12266 6793,12266 6790,12264 6787,12262 6785,12260 6783,12257 6782,12254 6781,12252 6781,12248 6781,12245 6782,12242 6783,12239 6785,12236 6787,12234 6790,12233 6793,12231 6796,12230 6799,12230 6802,12230 6805,12231 6808,12233 6811,12234 6813,12236 6815,12239 6816,12242 6817,12245 6817,12248 L 6817,12248 Z"/>
        <path fill="rgb(244,230,206)" stroke="none" d="M 7184,12516 C 7184,12520 7183,12522 7182,12525 7180,12528 7178,12530 7175,12532 7172,12534 7169,12534 7166,12534 7163,12534 7160,12534 7157,12532 7154,12530 7152,12528 7150,12525 7149,12522 7148,12520 7148,12516 7148,12513 7149,12510 7150,12507 7152,12504 7154,12502 7157,12501 7160,12499 7163,12498 7166,12498 7169,12498 7172,12499 7175,12501 7178,12502 7180,12504 7182,12507 7183,12510 7184,12513 7184,12516 L 7184,12516 Z"/>
        <path fill="rgb(244,230,206)" stroke="none" d="M 7116,12542 C 7116,12545 7116,12548 7114,12551 7112,12554 7110,12556 7107,12558 7104,12559 7101,12560 7098,12560 7095,12560 7092,12559 7089,12558 7086,12556 7084,12554 7082,12551 7081,12548 7080,12545 7080,12542 7080,12538 7081,12536 7082,12533 7084,12530 7086,12528 7089,12526 7092,12524 7095,12524 7098,12524 7101,12524 7104,12524 7107,12526 7110,12528 7112,12530 7114,12533 7116,12536 7116,12538 7116,12542 L 7116,12542 Z"/>
        <path fill="rgb(244,230,206)" stroke="none" d="M 7048,12567 C 7048,12571 7048,12574 7046,12576 7044,12579 7042,12581 7039,12583 7036,12585 7034,12586 7030,12586 7027,12586 7024,12585 7021,12583 7018,12581 7016,12579 7014,12576 7013,12574 7012,12571 7012,12567 7012,12564 7013,12561 7014,12558 7016,12555 7018,12553 7021,12552 7024,12550 7027,12549 7030,12549 7034,12549 7036,12550 7039,12552 7042,12553 7044,12555 7046,12558 7048,12561 7048,12564 7048,12567 L 7048,12567 Z"/>
        <path fill="rgb(244,230,206)" stroke="none" d="M 6980,12593 C 6980,12596 6980,12599 6978,12602 6976,12605 6974,12607 6971,12609 6968,12610 6966,12611 6962,12611 6959,12611 6956,12610 6953,12609 6950,12607 6948,12605 6947,12602 6945,12599 6944,12596 6944,12593 6944,12590 6945,12587 6947,12584 6948,12581 6950,12579 6953,12577 6956,12576 6959,12575 6962,12575 6966,12575 6968,12576 6971,12577 6974,12579 6976,12581 6978,12584 6980,12587 6980,12590 6980,12593 L 6980,12593 Z"/>
        <path fill="rgb(244,230,206)" stroke="none" d="M 6592,12946 C 6592,12949 6592,12952 6590,12955 6588,12958 6586,12960 6583,12962 6580,12963 6578,12964 6574,12964 6571,12964 6568,12963 6565,12962 6562,12960 6560,12958 6559,12955 6557,12952 6556,12949 6556,12946 6556,12943 6557,12940 6559,12937 6560,12934 6562,12932 6565,12930 6568,12928 6571,12928 6574,12928 6578,12928 6580,12928 6583,12930 6586,12932 6588,12934 6590,12937 6592,12940 6592,12943 6592,12946 L 6592,12946 Z"/>
        <path fill="rgb(244,230,206)" stroke="none" d="M 6637,12889 C 6637,12892 6636,12895 6635,12898 6633,12901 6631,12903 6628,12904 6625,12906 6622,12907 6619,12907 6616,12907 6613,12906 6610,12904 6607,12903 6605,12901 6603,12898 6602,12895 6601,12892 6601,12889 6601,12885 6602,12883 6603,12880 6605,12877 6607,12875 6610,12873 6613,12871 6616,12871 6619,12871 6622,12871 6625,12871 6628,12873 6631,12875 6633,12877 6635,12880 6636,12883 6637,12885 6637,12889 L 6637,12889 Z"/>
        <path fill="rgb(244,230,206)" stroke="none" d="M 6682,12832 C 6682,12835 6681,12838 6679,12841 6678,12843 6676,12846 6673,12847 6670,12849 6667,12850 6664,12850 6660,12850 6657,12849 6655,12847 6652,12846 6650,12843 6648,12841 6646,12838 6645,12835 6645,12832 6645,12828 6646,12825 6648,12822 6650,12820 6652,12817 6655,12816 6657,12814 6660,12813 6664,12813 6667,12813 6670,12814 6673,12816 6676,12817 6678,12820 6679,12822 6681,12825 6682,12828 6682,12832 L 6682,12832 Z"/>
        <path fill="rgb(244,230,206)" stroke="none" d="M 6726,12774 C 6726,12778 6726,12781 6724,12783 6722,12786 6720,12788 6717,12790 6714,12792 6712,12792 6708,12792 6705,12792 6702,12792 6699,12790 6696,12788 6694,12786 6693,12783 6691,12781 6690,12778 6690,12774 6690,12771 6691,12768 6693,12765 6694,12762 6696,12760 6699,12759 6702,12757 6705,12756 6708,12756 6712,12756 6714,12757 6717,12759 6720,12760 6722,12762 6724,12765 6726,12768 6726,12771 6726,12774 L 6726,12774 Z"/>
        <path fill="rgb(244,230,206)" stroke="none" d="M 7042,12946 C 7042,12949 7041,12952 7039,12955 7038,12958 7036,12960 7033,12962 7030,12963 7027,12964 7024,12964 7020,12964 7018,12963 7015,12962 7012,12960 7010,12958 7008,12955 7006,12952 7006,12949 7006,12946 7006,12943 7006,12940 7008,12937 7010,12934 7012,12932 7015,12930 7018,12928 7020,12928 7024,12928 7027,12928 7030,12928 7033,12930 7036,12932 7038,12934 7039,12937 7041,12940 7042,12943 7042,12946 L 7042,12946 Z"/>
        <path fill="rgb(244,230,206)" stroke="none" d="M 6997,12889 C 6997,12892 6996,12895 6995,12898 6993,12901 6991,12903 6988,12904 6985,12906 6982,12907 6979,12907 6976,12907 6973,12906 6970,12904 6967,12903 6965,12901 6963,12898 6962,12895 6961,12892 6961,12889 6961,12885 6962,12883 6963,12880 6965,12877 6967,12875 6970,12873 6973,12871 6976,12871 6979,12871 6982,12871 6985,12871 6988,12873 6991,12875 6993,12877 6995,12880 6996,12883 6997,12885 6997,12889 L 6997,12889 Z"/>
        <path fill="rgb(244,230,206)" stroke="none" d="M 6953,12832 C 6953,12835 6952,12838 6950,12841 6948,12843 6946,12846 6943,12847 6941,12849 6938,12850 6934,12850 6931,12850 6928,12849 6925,12847 6922,12846 6920,12843 6919,12841 6917,12838 6916,12835 6916,12832 6916,12828 6917,12825 6919,12822 6920,12820 6922,12817 6925,12816 6928,12814 6931,12813 6934,12813 6938,12813 6941,12814 6943,12816 6946,12817 6948,12820 6950,12822 6952,12825 6953,12828 6953,12832 L 6953,12832 Z"/>
        <path fill="rgb(244,230,206)" stroke="none" d="M 6908,12774 C 6908,12778 6907,12781 6905,12783 6904,12786 6902,12788 6899,12790 6896,12792 6893,12792 6890,12792 6886,12792 6884,12792 6881,12790 6878,12788 6876,12786 6874,12783 6872,12781 6872,12778 6872,12774 6872,12771 6872,12768 6874,12765 6876,12762 6878,12760 6881,12759 6884,12757 6886,12756 6890,12756 6893,12756 6896,12757 6899,12759 6902,12760 6904,12762 6905,12765 6907,12768 6908,12771 6908,12774 L 6908,12774 Z"/>
        <path fill="rgb(244,230,206)" stroke="none" d="M 6450,12516 C 6450,12520 6449,12522 6448,12525 6446,12528 6444,12530 6441,12532 6438,12534 6435,12534 6432,12534 6429,12534 6426,12534 6423,12532 6420,12530 6418,12528 6416,12525 6415,12522 6414,12520 6414,12516 6414,12513 6415,12510 6416,12507 6418,12504 6420,12502 6423,12501 6426,12499 6429,12498 6432,12498 6435,12498 6438,12499 6441,12501 6444,12502 6446,12504 6448,12507 6449,12510 6450,12513 6450,12516 L 6450,12516 Z"/>
        <path fill="rgb(244,230,206)" stroke="none" d="M 6518,12542 C 6518,12545 6517,12548 6516,12551 6514,12554 6512,12556 6509,12558 6506,12559 6503,12560 6500,12560 6497,12560 6494,12559 6491,12558 6488,12556 6486,12554 6484,12551 6482,12548 6482,12545 6482,12542 6482,12538 6482,12536 6484,12533 6486,12530 6488,12528 6491,12526 6494,12524 6497,12524 6500,12524 6503,12524 6506,12524 6509,12526 6512,12528 6514,12530 6516,12533 6517,12536 6518,12538 6518,12542 L 6518,12542 Z"/>
        <path fill="rgb(244,230,206)" stroke="none" d="M 6586,12567 C 6586,12571 6585,12574 6584,12576 6582,12579 6580,12581 6577,12583 6574,12585 6571,12586 6568,12586 6564,12586 6562,12585 6559,12583 6556,12581 6554,12579 6552,12576 6550,12574 6550,12571 6550,12567 6550,12564 6550,12561 6552,12558 6554,12555 6556,12553 6559,12552 6562,12550 6564,12549 6568,12549 6571,12549 6574,12550 6577,12552 6580,12553 6582,12555 6584,12558 6585,12561 6586,12564 6586,12567 L 6586,12567 Z"/>
        <path fill="rgb(244,230,206)" stroke="none" d="M 6654,12593 C 6654,12596 6653,12599 6651,12602 6650,12605 6648,12607 6645,12609 6642,12610 6639,12611 6636,12611 6632,12611 6630,12610 6627,12609 6624,12607 6622,12605 6620,12602 6618,12599 6618,12596 6618,12593 6618,12590 6618,12587 6620,12584 6622,12581 6624,12579 6627,12577 6630,12576 6632,12575 6636,12575 6639,12575 6642,12576 6645,12577 6648,12579 6650,12581 6651,12584 6653,12587 6654,12590 6654,12593 L 6654,12593 Z"/>
       </g>
      </g>
      <g class="Graphic">
       <g id="id18">
        <path fill="rgb(255,80,35)" stroke="none" d="M 8441,12378 C 8509,12363 8560,12302 8560,12229 8505,12229 8408,12229 8408,12229 8408,12229 8408,12187 8408,12077 8324,12077 8256,12145 8256,12229 8256,12277 8276,12309 8313,12348 8350,12387 8523,12558 8523,12558 L 8558,12495 C 8558,12495 8444,12381 8441,12378 L 8441,12378 Z"/>
        <path fill="rgb(255,80,35)" stroke="none" d="M 8270,12631 L 8200,12631 C 8200,12562 8256,12506 8325,12506 L 8505,12506 8505,12575 8325,12575 C 8294,12575 8270,12600 8270,12631 L 8270,12631 Z"/>
        <path fill="rgb(255,80,35)" stroke="none" d="M 8270,12797 L 8200,12797 C 8200,12728 8256,12672 8325,12672 L 8505,12672 8505,12741 8325,12741 C 8294,12741 8270,12766 8270,12797 L 8270,12797 Z"/>
        <path fill="rgb(255,80,35)" stroke="none" d="M 8380,12921 L 8311,12921 C 8311,12853 8367,12797 8436,12797 L 8699,12797 8699,12866 8436,12866 C 8405,12866 8380,12891 8380,12921 L 8380,12921 Z"/>
        <path fill="rgb(255,80,35)" stroke="none" d="M 9031,12631 C 9031,12676 9017,12715 8987,12755 8956,12795 8918,12824 8865,12846 8812,12869 8760,12880 8699,12880 8638,12880 8586,12869 8533,12846 8480,12824 8442,12795 8411,12755 8381,12715 8367,12676 8367,12631 8367,12585 8381,12546 8411,12506 8442,12466 8480,12438 8533,12415 8586,12392 8638,12381 8699,12381 8760,12381 8812,12392 8865,12415 8918,12438 8956,12466 8987,12506 9017,12546 9031,12585 9031,12631 L 9031,12631 Z"/>
        <path fill="rgb(189,60,26)" stroke="none" d="M 8699,12880 C 8515,12880 8367,12768 8367,12631 8367,12493 8515,12381 8699,12381 Z"/>
        <path fill="rgb(0,0,0)" stroke="none" d="M 8616,12395 C 8616,12403 8614,12409 8610,12416 8607,12423 8602,12427 8595,12431 8588,12435 8582,12437 8574,12437 8567,12437 8560,12435 8554,12431 8547,12427 8542,12423 8538,12416 8535,12409 8533,12403 8533,12395 8533,12387 8535,12381 8538,12374 8542,12368 8547,12363 8554,12359 8560,12355 8567,12354 8574,12354 8582,12354 8588,12355 8595,12359 8602,12363 8607,12368 8610,12374 8614,12381 8616,12387 8616,12395 L 8616,12395 Z"/>
        <path fill="rgb(0,0,0)" stroke="none" d="M 8865,12395 C 8865,12403 8863,12409 8860,12416 8856,12423 8851,12427 8844,12431 8838,12435 8831,12437 8824,12437 8816,12437 8810,12435 8803,12431 8796,12427 8791,12423 8788,12416 8784,12409 8782,12403 8782,12395 8782,12387 8784,12381 8788,12374 8791,12368 8796,12363 8803,12359 8810,12355 8816,12354 8824,12354 8831,12354 8838,12355 8844,12359 8851,12363 8856,12368 8860,12374 8863,12381 8865,12387 8865,12395 L 8865,12395 Z"/>
        <path fill="rgb(255,80,35)" stroke="none" d="M 9128,12631 L 9198,12631 C 9198,12562 9142,12506 9073,12506 L 8893,12506 8893,12575 9073,12575 C 9104,12575 9128,12600 9128,12631 L 9128,12631 Z"/>
        <path fill="rgb(255,80,35)" stroke="none" d="M 9128,12797 L 9198,12797 C 9198,12728 9142,12672 9073,12672 L 8893,12672 8893,12741 9073,12741 C 9104,12741 9128,12766 9128,12797 L 9128,12797 Z"/>
        <path fill="rgb(255,80,35)" stroke="none" d="M 9018,12921 L 9087,12921 C 9087,12853 9031,12797 8962,12797 L 8699,12797 8699,12866 8962,12866 C 8993,12866 9018,12891 9018,12921 L 9018,12921 Z"/>
        <path fill="rgb(255,80,35)" stroke="none" d="M 8957,12378 C 8889,12363 8838,12302 8838,12229 8893,12229 8990,12229 8990,12229 8990,12229 8990,12187 8990,12077 9074,12077 9142,12145 9142,12229 9142,12277 9122,12309 9085,12348 9048,12387 8875,12558 8875,12558 L 8840,12495 C 8840,12495 8954,12381 8957,12378 L 8957,12378 Z"/>
       </g>
      </g>
      <g class="Graphic">
       <g id="id19">
        <path fill="rgb(124,204,72)" stroke="none" d="M 9398,11322 C 9398,11351 9386,11378 9367,11397 9348,11416 9321,11428 9292,11428 L 8756,11428 C 8697,11428 8650,11380 8650,11322 L 9398,11322 9398,11322 Z"/>
        <path fill="rgb(188,132,42)" stroke="none" d="M 9225,11322 L 8404,11322 C 8484,11244 8587,11189 8701,11167 8737,11160 8776,11156 8815,11156 8853,11156 8892,11160 8928,11167 9042,11189 9145,11244 9225,11322 L 9225,11322 Z"/>
        <path fill="rgb(124,204,72)" stroke="none" d="M 9225,11322 C 9211,11335 9196,11348 9181,11360 9142,11391 9099,11416 9052,11435 8987,11463 8915,11478 8839,11478 8755,11478 8675,11459 8603,11426 8603,11425 8602,11425 8602,11425 8564,11407 8529,11386 8497,11360 8488,11353 8479,11346 8471,11338 8465,11333 8459,11327 8453,11322 L 9225,11322 9225,11322 Z"/>
        <path fill="rgb(255,255,255)" stroke="none" d="M 9348,11329 C 9348,11335 9346,11341 9343,11346 9340,11351 9336,11355 9331,11358 9325,11362 9320,11363 9314,11363 9307,11363 9302,11362 9296,11358 9291,11355 9287,11351 9284,11346 9281,11341 9279,11335 9279,11329 9279,11323 9281,11317 9284,11312 9287,11306 9291,11302 9296,11299 9302,11296 9307,11295 9314,11295 9320,11295 9325,11296 9331,11299 9336,11302 9340,11306 9343,11312 9346,11317 9348,11323 9348,11329 L 9348,11329 Z"/>
        <path fill="rgb(77,77,77)" stroke="none" d="M 9334,11329 C 9334,11333 9334,11336 9332,11339 9330,11343 9327,11345 9324,11347 9321,11349 9317,11350 9314,11350 9310,11350 9306,11349 9303,11347 9300,11345 9297,11343 9295,11339 9294,11336 9293,11333 9293,11329 9293,11325 9294,11322 9295,11318 9297,11315 9300,11313 9303,11311 9306,11309 9310,11308 9314,11308 9317,11308 9321,11309 9324,11311 9327,11313 9330,11315 9332,11318 9334,11322 9334,11325 9334,11329 L 9334,11329 Z"/>
        <path fill="rgb(109,178,64)" stroke="none" d="M 9052,11435 C 8987,11463 8915,11478 8839,11478 8754,11478 8674,11459 8602,11425 8668,11400 8740,11386 8815,11386 8899,11386 8980,11403 9052,11435 L 9052,11435 Z"/>
        <path fill="rgb(109,178,64)" stroke="none" d="M 8603,11426 C 8603,11425 8602,11425 8602,11425 8564,11407 8529,11386 8497,11360 8488,11353 8479,11346 8471,11338 L 8568,11367 C 8568,11367 8605,11390 8603,11426 L 8603,11426 Z"/>
        <path fill="rgb(124,204,72)" stroke="none" d="M 8472,11359 L 8584,11359 8584,11388 C 8584,11427 8552,11459 8513,11459 L 8400,11459 8400,11430 C 8400,11391 8432,11359 8472,11359 L 8472,11359 Z"/>
        <path fill="rgb(168,111,29)" stroke="none" d="M 8928,11167 C 8902,11184 8861,11194 8815,11194 8768,11194 8727,11184 8701,11167 8737,11160 8776,11156 8815,11156 8853,11156 8892,11160 8928,11167 L 8928,11167 Z"/>
        <path fill="rgb(168,111,29)" stroke="none" d="M 8550,11276 C 8550,11280 8549,11283 8547,11286 8545,11290 8543,11292 8540,11294 8536,11296 8533,11297 8529,11297 8526,11297 8522,11296 8519,11294 8516,11292 8513,11290 8511,11286 8510,11283 8509,11280 8509,11276 8509,11272 8510,11269 8511,11266 8513,11262 8516,11260 8519,11258 8522,11256 8526,11255 8529,11255 8533,11255 8536,11256 8540,11258 8543,11260 8545,11262 8547,11266 8549,11269 8550,11272 8550,11276 L 8550,11276 Z"/>
        <path fill="rgb(168,111,29)" stroke="none" d="M 8631,11276 C 8631,11280 8631,11283 8629,11286 8627,11290 8624,11292 8621,11294 8618,11296 8615,11297 8611,11297 8607,11297 8604,11296 8600,11294 8597,11292 8595,11290 8593,11286 8591,11283 8590,11280 8590,11276 8590,11272 8591,11269 8593,11266 8595,11262 8597,11260 8600,11258 8604,11256 8607,11255 8611,11255 8615,11255 8618,11256 8621,11258 8624,11260 8627,11262 8629,11266 8631,11269 8631,11272 8631,11276 L 8631,11276 Z"/>
        <path fill="rgb(168,111,29)" stroke="none" d="M 8713,11276 C 8713,11280 8712,11283 8710,11286 8708,11290 8706,11292 8703,11294 8699,11296 8696,11297 8692,11297 8688,11297 8685,11296 8682,11294 8679,11292 8676,11290 8674,11286 8672,11283 8672,11280 8672,11276 8672,11272 8672,11269 8674,11266 8676,11262 8679,11260 8682,11258 8685,11256 8688,11255 8692,11255 8696,11255 8699,11256 8703,11258 8706,11260 8708,11262 8710,11266 8712,11269 8713,11272 8713,11276 L 8713,11276 Z"/>
        <path fill="rgb(168,111,29)" stroke="none" d="M 8794,11276 C 8794,11280 8794,11283 8792,11286 8790,11290 8787,11292 8784,11294 8781,11296 8778,11297 8774,11297 8770,11297 8767,11296 8763,11294 8760,11292 8758,11290 8756,11286 8754,11283 8753,11280 8753,11276 8753,11272 8754,11269 8756,11266 8758,11262 8760,11260 8763,11258 8767,11256 8770,11255 8774,11255 8778,11255 8781,11256 8784,11258 8787,11260 8790,11262 8792,11266 8794,11269 8794,11272 8794,11276 L 8794,11276 Z"/>
        <path fill="rgb(168,111,29)" stroke="none" d="M 8876,11276 C 8876,11280 8875,11283 8873,11286 8871,11290 8869,11292 8866,11294 8862,11296 8859,11297 8855,11297 8851,11297 8848,11296 8845,11294 8842,11292 8839,11290 8837,11286 8835,11283 8835,11280 8835,11276 8835,11272 8835,11269 8837,11266 8839,11262 8842,11260 8845,11258 8848,11256 8851,11255 8855,11255 8859,11255 8862,11256 8866,11258 8869,11260 8871,11262 8873,11266 8875,11269 8876,11272 8876,11276 L 8876,11276 Z"/>
        <path fill="rgb(168,111,29)" stroke="none" d="M 8957,11276 C 8957,11280 8957,11283 8955,11286 8953,11290 8950,11292 8947,11294 8944,11296 8941,11297 8937,11297 8933,11297 8930,11296 8926,11294 8923,11292 8921,11290 8919,11286 8917,11283 8916,11280 8916,11276 8916,11272 8917,11269 8919,11266 8921,11262 8923,11260 8926,11258 8930,11256 8933,11255 8937,11255 8941,11255 8944,11256 8947,11258 8950,11260 8953,11262 8955,11266 8957,11269 8957,11272 8957,11276 L 8957,11276 Z"/>
        <path fill="rgb(168,111,29)" stroke="none" d="M 9039,11276 C 9039,11280 9038,11283 9036,11286 9034,11290 9032,11292 9029,11294 9025,11296 9022,11297 9018,11297 9014,11297 9011,11296 9008,11294 9005,11292 9002,11290 9000,11286 8998,11283 8998,11280 8998,11276 8998,11272 8998,11269 9000,11266 9002,11262 9005,11260 9008,11258 9011,11256 9014,11255 9018,11255 9022,11255 9025,11256 9029,11258 9032,11260 9034,11262 9036,11266 9038,11269 9039,11272 9039,11276 L 9039,11276 Z"/>
        <path fill="rgb(168,111,29)" stroke="none" d="M 9120,11276 C 9120,11280 9119,11283 9118,11286 9116,11290 9113,11292 9110,11294 9107,11296 9103,11297 9100,11297 9096,11297 9093,11296 9089,11294 9086,11292 9084,11290 9082,11286 9080,11283 9079,11280 9079,11276 9079,11272 9080,11269 9082,11266 9084,11262 9086,11260 9089,11258 9093,11256 9096,11255 9100,11255 9103,11255 9107,11256 9110,11258 9113,11260 9116,11262 9118,11266 9119,11269 9120,11272 9120,11276 L 9120,11276 Z"/>
        <path fill="rgb(109,178,64)" stroke="none" d="M 9171,11428 L 9109,11428 9116,11369 C 9116,11369 9157,11383 9171,11428 L 9171,11428 Z"/>
        <path fill="rgb(124,204,72)" stroke="none" d="M 9013,11436 L 9100,11349 9100,11350 C 9157,11407 9157,11498 9100,11555 L 9013,11642 9013,11642 C 8956,11585 8956,11493 9013,11436 L 9013,11436 Z"/>
       </g>
      </g>
     </g>
    </g>
   </g>
  </g>
 </g>
</svg>